<svg xmlns="http://www.w3.org/2000/svg" width="105.488" height="40.401" viewBox="0 0 105.488 40.401"><defs><style>.a{fill:#fafafa;}</style></defs><g transform="translate(0 0)"><g transform="translate(0 0)"><path class="a" d="M24.8,167.579,17.026,159.8l7.777-7.777L20.179,147.4,12.4,155.177,4.624,147.4,0,152.025,7.777,159.8,0,167.579,4.624,172.2l7.778-7.777,7.777,7.777Z" transform="translate(0 -139.626)"/><path class="a" d="M102.362,2.7,97.82,7.242l3.826,3.826,3.416-3.457,3.416,3.457L112.3,7.242,107.763,2.7l-2.7-2.7-2.7,2.7" transform="translate(-92.661)"/><path class="a" d="M102.362,564.5l-4.542-4.542,3.826-3.826,3.416,3.457,3.416-3.457,3.827,3.826-4.542,4.542-2.7,2.7-2.7-2.7" transform="translate(-92.661 -526.797)"/><path class="a" d="M563.693,126.235l-9.873,24.778h1.9l3.424-8.71h9.973l3.408,8.71h1.928l-9.668-24.778Zm4.852,14.515h-8.781l3.442-8.861a27.206,27.206,0,0,0,.99-2.936q.587,1.856,1.007,2.9Zm21.658-9.4q0,2.041.1,4.167h-.1a6.831,6.831,0,0,0-2.584-2.482,7.543,7.543,0,0,0-3.426-.726,6.892,6.892,0,0,0-5.758,2.515q-1.981,2.515-1.983,7.277,0,4.523,2,6.887a7.14,7.14,0,0,0,5.776,2.363,6.745,6.745,0,0,0,5.977-3.139h.135l.419,2.8h1.092V124.75H590.2Zm0,10.751q0,4.151-1.444,5.96a5.445,5.445,0,0,1-4.533,1.806q-6.029,0-6.027-7.8a10.5,10.5,0,0,1,1.5-6.127,5.154,5.154,0,0,1,4.491-2.11,5.406,5.406,0,0,1,4.593,1.865q1.42,1.865,1.418,6.118Zm8.194,8.914h13.416v-1.588h-11.7v-10.58h11.047v-1.589H600.111v-9.336h11.7v-1.585H598.4Zm24.984-9.436,6.262-8.914h-1.829l-5.39,7.732-5.439-7.731h-1.914l6.363,8.914-6.615,9.436h1.829l5.776-8.187,5.743,8.187H630.1Z" transform="translate(-524.609 -118.17)"/></g></g></svg>