<svg xmlns="http://www.w3.org/2000/svg" viewBox="0 0 135.79 188.13"><g id="Layer_2" data-name="Layer 2"><g id="Layer_1-2" data-name="Layer 1"><path d="M21.93,92.62q0-19,0-38c0-4.61-1.66-6.38-6.31-6.49-4.4-.1-8.81-.1-13.22,0C.6,48.14,0,47.49,0,45.7c.09-5,.12-9.91,0-14.87,0-2.06.58-2.76,2.69-2.74,10,.1,20,0,29.94.08,1.95,0,2.64-.53,2.61-2.55-.1-7.64,0-15.28-.08-22.92,0-2.1.69-2.75,2.75-2.7,4.75.13,9.5.09,14.25,0,1.68,0,2.29.56,2.28,2.28-.07,7.77,0,15.55-.07,23.33,0,2,.64,2.7,2.6,2.53a31.46,31.46,0,0,1,5,0c1.95.16,2.64-.5,2.61-2.53-.11-7.64,0-15.28-.08-22.92C64.42.61,65.1,0,67.17,0Q74.09.2,81,0c2,0,2.76.57,2.73,2.69-.1,7.85,0,15.69-.07,23.54,0,1.62.45,2.28,2.13,2.48,8.38,1,16.53,2.94,24.1,6.84,6.32,3.26,11.71,7.56,14.61,14.28a30.41,30.41,0,0,1-9.23,35.54c-2,1.53-2,1.53.34,2.46a32.45,32.45,0,0,1,19.9,34.37c-.64,5-1.45,9.94-3.5,14.59-5,11.31-14.14,17.39-25.72,20.37a68.81,68.81,0,0,1-19.64,2.08c-2.14-.07-2.68.67-2.66,2.71.11,7.78,0,15.56,0,23.34,0,2.75-.08,2.83-2.74,2.83-4.47,0-8.94,0-13.42,0-2.72,0-2.86-.14-2.86-3,0-7.71,0-15.42,0-23.13,0-2.74,0-2.74-2.77-2.75-1.65,0-3.3.09-5,0s-2.17.52-2.15,2.14c.06,7.43,0,14.87,0,22.3,0,4.85.49,4.41-4.45,4.42q-6.19,0-12.39,0c-2.53,0-2.65-.12-2.65-2.71,0-7.78,0-15.56,0-23.34,0-2.78,0-2.78-2.72-2.79-9.49,0-19-.05-28.49,0-2,0-2.81-.53-2.76-2.66.13-5,.09-10,0-15.08,0-1.74.5-2.48,2.36-2.42,3.3.12,6.6,0,9.91,0,5.93,0,7.89-1.94,7.94-7.95,0-5.3,0-10.6,0-15.9Zm32.48,26.6c0,5.23.05,10.46,0,15.68,0,1.64.41,2.34,2.19,2.32,6.54-.09,13.07,0,19.6-.09a34.29,34.29,0,0,0,12.47-2.51c5.34-2.2,9.21-5.87,10.65-11.54,2.51-9.88,0-15.83-10.17-19.48a33.94,33.94,0,0,0-8-1.74c-8.3-.84-16.63-.21-24.95-.42-1.41,0-1.74.63-1.73,1.89C54.43,108.63,54.41,113.92,54.41,119.22Zm0-53.7c0,4.69.06,9.37,0,14,0,1.69.49,2.29,2.22,2.26,6-.08,12,0,18,0a16.33,16.33,0,0,0,9.17-2.71c5.52-3.72,7.85-9.06,7.51-15.58-.32-6-3.67-9.77-9.08-11.86a28.37,28.37,0,0,0-4.75-1.39C70.36,48.81,63.18,49.1,56,49c-1.48,0-1.63.87-1.63,2C54.42,55.89,54.41,60.71,54.41,65.52Z"/></g></g></svg>