<svg xmlns="http://www.w3.org/2000/svg" width="22.433" height="22.41" viewBox="0 0 22.433 22.41">
  <g id="Group_1548" data-name="Group 1548" transform="translate(0 0)">
    <path id="Path_1095" data-name="Path 1095" d="M1268.213-590.947V-580.8h10.145v-10.145Zm8.534,6.009h-2.542v2.468h-1.839v-2.468h-2.544v-1.833h2.544v-2.509h1.839v2.509h2.542Z" transform="translate(-1268.213 590.947)" />
    <path id="Path_1096" data-name="Path 1096" d="M1278.745-580.436v10.145h10.144v-10.145Zm8.13,6.83-1.3,1.3-1.746-1.745-1.8,1.8-1.3-1.3,1.8-1.8-1.775-1.774,1.3-1.3,1.773,1.775,1.8-1.8,1.3,1.3-1.8,1.8Z" transform="translate(-1266.455 592.701)" />
    <path id="Path_1097" data-name="Path 1097" d="M1268.213-580.436v10.145h10.145v-10.145Zm7.7,6.139h-5.249v-2.133h5.249Z" transform="translate(-1268.213 592.701)" />
    <path id="Path_1098" data-name="Path 1098" d="M1278.745-590.947V-580.8h10.144v-10.145Zm4.152,1.667h1.84v1.839h-1.84Zm1.84,6.851h-1.84v-1.839h1.84Zm2.542-2.509h-6.925v-1.833h6.925Z" transform="translate(-1266.455 590.947)" />
  </g>
</svg>
