<svg id="Group_1547" data-name="Group 1547" xmlns="http://www.w3.org/2000/svg" width="22.517" height="22.515" viewBox="0 0 22.517 22.515">
  <path id="Path_1087" data-name="Path 1087" d="M1153.1-764.367a9.778,9.778,0,0,1-5.1-1.288c-2.31-1.415-2.321-3.638,0-5.052a9.941,9.941,0,0,1,6.12-1.255,9.162,9.162,0,0,1,4.089,1.206,4.5,4.5,0,0,1,1.144.939,2.345,2.345,0,0,1-.1,3.369,7.005,7.005,0,0,1-3.857,1.867A9.987,9.987,0,0,1,1153.1-764.367Z" transform="translate(-1146.238 781.636)" />
  <path id="Path_1088" data-name="Path 1088" d="M1160.743-772.665a9.915,9.915,0,0,1-4.8-1.023,4.6,4.6,0,0,1-1.529-1.182,2.361,2.361,0,0,1,.1-3.3,5.2,5.2,0,0,1,2.128-1.383,10.946,10.946,0,0,1,8.844.382,4.447,4.447,0,0,1,1.124.8,2.463,2.463,0,0,1-.074,3.888,7.841,7.841,0,0,1-4.053,1.7A8.748,8.748,0,0,1,1160.743-772.665Z" transform="translate(-1145.024 780.3)" />
  <path id="Path_1089" data-name="Path 1089" d="M1146.319-767.5c.612,1.826,2.044,2.534,3.622,2.977a11.126,11.126,0,0,0,7.378-.339,3.98,3.98,0,0,0,2.587-2.521,2.877,2.877,0,0,1-.363,2.487,5.048,5.048,0,0,1-2.48,1.738,11.272,11.272,0,0,1-7.819.015,6.717,6.717,0,0,1-1.194-.584A3.332,3.332,0,0,1,1146.319-767.5Z" transform="translate(-1146.242 782.362)" />
  <path id="Path_1090" data-name="Path 1090" d="M1159.949-765.262a3.292,3.292,0,0,1-1.75,3.818,9.122,9.122,0,0,1-3.886,1.181,11.111,11.111,0,0,1-5.276-.7,6.033,6.033,0,0,1-1.9-1.193,3.292,3.292,0,0,1-.849-3.022c1.024,2.365,3.084,2.924,5.251,3.254a10.872,10.872,0,0,0,5.635-.61A4.193,4.193,0,0,0,1159.949-765.262Z" transform="translate(-1146.241 782.723)" />
  <path id="Path_1091" data-name="Path 1091" d="M1167.464-775.752a3.169,3.169,0,0,1-.685,2.926,7.031,7.031,0,0,1-3.811,1.852,11.234,11.234,0,0,1-4.376.032,3.971,3.971,0,0,1-1.246-.439,5.027,5.027,0,0,0-1.215-.535,3.153,3.153,0,0,1-2.323-3.8c.044.029.1.045.114.077a3.6,3.6,0,0,0,2.179,2.308,10.851,10.851,0,0,0,8.942.081A3.876,3.876,0,0,0,1167.464-775.752Z" transform="translate(-1145.03 781.033)" />
  <path id="Path_1092" data-name="Path 1092" d="M1166.662-773.54a3.154,3.154,0,0,1-.98,3.278,8.539,8.539,0,0,1-4.789,1.729.958.958,0,0,0-.152.007,1.457,1.457,0,0,1-2.019-1.2c-.089-.353-.052-.419.28-.405a12.567,12.567,0,0,0,3.31-.207,7.744,7.744,0,0,0,3-1.253A3.3,3.3,0,0,0,1166.662-773.54Z" transform="translate(-1144.237 781.389)" />
  <path id="Path_1093" data-name="Path 1093" d="M1166.579-769.01a3.222,3.222,0,0,1-1.677,3.777,10.377,10.377,0,0,1-5.159,1.275c-.46.012-.618-.2-.613-.654.007-.975-.014-.973.95-.989a8.833,8.833,0,0,0,5.262-1.552A3.113,3.113,0,0,0,1166.579-769.01Z" transform="translate(-1144.165 782.119)" />
  <path id="Path_1094" data-name="Path 1094" d="M1166.59-771.227a3.086,3.086,0,0,1-1.229,3.415,9.424,9.424,0,0,1-5.834,1.563.344.344,0,0,1-.381-.381c0-.035,0-.069,0-.1-.067-1.095-.067-1.08,1.016-1.11a10.1,10.1,0,0,0,3.98-.854A4,4,0,0,0,1166.59-771.227Z" transform="translate(-1144.167 781.762)" />
</svg>
