<svg xmlns="http://www.w3.org/2000/svg" width="129.934" height="142.038" viewBox="0 0 129.934 142.038"><g transform="translate(222.283 597.452)"><path d="M-165.533-585.571c-1.471-.154-2.685-.228-3.881-.415a5.679,5.679,0,0,1-4.824-5.962,5.72,5.72,0,0,1,5.316-5.412c3.187-.136,6.384-.066,9.577-.07,4.367,0,8.735-.063,13.1.03a5.778,5.778,0,0,1,5.567,7.481c-.635,2.362-3.2,4.108-6.189,4.2-.694.02-1.389,0-2.258,0,0,2.27-.046,4.416.056,6.556.014.285.756.714,1.2.772a65.788,65.788,0,0,1,19.029,5.6,62.2,62.2,0,0,1,14.022,8.85c.719.6,1.207.688,1.859-.052,1.145-1.3,2.357-2.541,3.685-3.961-.357-.32-.892-.741-1.359-1.228a3.411,3.411,0,0,1-.25-4.707,3.7,3.7,0,0,1,4.943-.5c1.2.968,2.286,2.087,3.411,3.151,1.977,1.87,3.956,3.738,5.916,5.627,1.563,1.507,1.769,3.427.565,4.884a3.71,3.71,0,0,1-5.178.426c-.806-.676-1.264-.654-1.95.092a35.9,35.9,0,0,1-3.038,2.92c-.735.63-.708,1.054-.128,1.832a96.617,96.617,0,0,1,5.642,8.034A57.776,57.776,0,0,1-93.169-527.2a59.463,59.463,0,0,1,.246,18.073,59.427,59.427,0,0,1-11.733,28.06,62.53,62.53,0,0,1-19.929,17.232,44.509,44.509,0,0,1-6.091,2.724,121.413,121.413,0,0,1-11.8,3.98,63.854,63.854,0,0,1-23.688,1.111,63.662,63.662,0,0,1-22.63-7.086c-14.35-7.736-24.655-19.092-30.2-34.537a57.37,57.37,0,0,1-3.18-16.033,57.884,57.884,0,0,1,8.541-34.426,63.154,63.154,0,0,1,31.6-26.3,64.676,64.676,0,0,1,15.424-4.028c.385-.05,1.009-.52,1.022-.816C-165.492-581.341-165.533-583.445-165.533-585.571ZM-116.582-482.8a50.567,50.567,0,0,0,13.607-31.582c-1.042,0-1.831-.029-2.618.005-3.841.165-3.667-.522-3.605-3.874.028-1.536.617-2.055,2.206-2.078,1.256-.018,2.513,0,3.735,0,1.446-7.154-7.472-27.519-13.634-31.274-.5.471-1.008.948-1.512,1.433-2.7,2.6-2.944,2.59-5.586-.139-1.1-1.136-1.119-1.878-.019-2.98.89-.892,1.818-1.746,2.707-2.6-.092-.178-.115-.285-.18-.34-9.243-7.75-20-11.716-31.923-12.754-.251-.022-.673.373-.781.661a3.306,3.306,0,0,0-.041,1.255c.2,4.233-.538,4.021-4.273,3.965a1.776,1.776,0,0,1-1.951-1.921c-.022-1.033-.02-2.066-.012-3.1.006-.748-.342-1.023-1.064-.862a7.068,7.068,0,0,1-.964.183,53.837,53.837,0,0,0-24.063,7.815c-2.407,1.467-4.649,3.2-7.073,4.888.73.7,1.2,1.153,1.676,1.6,2.748,2.582,2.744,2.973-.057,5.438-1.235,1.087-1.926,1.094-3.167-.029-.925-.838-1.815-1.715-2.71-2.564-6.912,5.575-14.863,23.814-13.611,31.319,1.273,0,2.577-.019,3.88,0,1.492.028,2.119.645,2.194,2.126.026.515.023,1.033,0,1.549-.065,1.784-.533,2.246-2.3,2.265-1.3.014-2.593,0-4.04,0,.78,12.331,5.563,22.6,13.644,31.589l1.821-1.714c2.7-2.549,2.881-2.546,5.523.082,1.125,1.118,1.145,2.021.032,3.116-.923.908-1.872,1.789-2.861,2.73.407.36.7.646,1.026.9a55.921,55.921,0,0,0,16.749,9.245,60.342,60.342,0,0,0,14.145,2.925c.927.091,1.293-.176,1.238-1.131-.06-1.03-.032-2.066,0-3.1a1.763,1.763,0,0,1,1.873-1.848c2.832-.23,3.987.12,4.289,1.37a3.723,3.723,0,0,1,.049.841c.005.892.057,1.789-.013,2.676-.081,1.029.323,1.268,1.307,1.186a56.251,56.251,0,0,0,26.8-9.216c1.733-1.146,3.358-2.454,5.051-3.7-.694-.712-1.2-1.255-1.727-1.769-2.693-2.6-2.685-2.981.153-5.431,1.237-1.068,1.9-1.046,3.158.114C-118.579-484.658-117.659-483.8-116.582-482.8Z"/><path d="M90.872-306.352h-5.99v-17.426c1.789,0,3.6-.048,5.4.041.356.018.73.524,1.022.868,1.818,2.139,3.614,4.3,5.705,6.791V-323.7h5.98v17.389c-1.705,0-3.424.051-5.135-.042-.355-.019-.721-.536-1.014-.881-1.9-2.245-3.783-4.507-5.967-7.115Z" transform="translate(-220.606 -196.543)"/><path d="M-48.262-316.215c-.1,4.386-2.926,7.842-7.586,8.957-5.611,1.343-11.787-1.9-12.4-7.984a8.225,8.225,0,0,1,1.86-6.294,10.039,10.039,0,0,1,9.921-3.6,9.148,9.148,0,0,1,7.679,6.182A17.525,17.525,0,0,1-48.262-316.215Zm-10.078-3.869a3.84,3.84,0,0,0-3.821,4,3.894,3.894,0,0,0,3.872,3.969,3.808,3.808,0,0,0,3.812-3.993A3.865,3.865,0,0,0-58.339-320.084Z" transform="translate(-110.59 -195.454)"/><path d="M27.755-316.128c-.119,4.308-2.926,7.72-7.53,8.855-5.674,1.4-11.834-1.933-12.451-7.911a8.258,8.258,0,0,1,1.819-6.3,10.018,10.018,0,0,1,9.9-3.651,9.153,9.153,0,0,1,7.761,6.27A17.311,17.311,0,0,1,27.755-316.128Zm-10.022,4.014a3.808,3.808,0,0,0,3.809-4,3.866,3.866,0,0,0-3.867-3.972,3.842,3.842,0,0,0-3.819,4A3.9,3.9,0,0,0,17.733-312.114Z" transform="translate(-165.189 -195.455)"/><path d="M-116.77-322.405l-2.7,3.621c-2.068-.454-3.9-.9-5.76-1.225-.39-.067-.862.342-1.3.531.371.345.687.878,1.122,1,1.659.482,3.386.738,5.033,1.253,2.662.832,4.016,2.463,4.056,4.62a5.33,5.33,0,0,1-3.931,5.25,14.661,14.661,0,0,1-12.785-1.7,7.35,7.35,0,0,1-.718-.613l2.887-3.34c2.177.619,4.067,1.268,6.01,1.646.675.131,1.48-.409,2.226-.642a8.313,8.313,0,0,0-1.838-1.171c-1.6-.508-3.3-.726-4.874-1.3-1.949-.71-3.437-1.982-3.477-4.294a5.053,5.053,0,0,1,3.3-5.106C-125.134-325.588-120.906-325-116.77-322.405Z" transform="translate(-63.585 -195.785)"/><path d="M-23.021-369.079l-2.873-4.113-.315.077v5.838h-4.381v-13.039c1.384,0,2.737-.056,4.079.037a1.756,1.756,0,0,1,1.038.776c.828,1.171,1.585,2.392,2.486,3.771.807-1.235,1.568-2.238,2.15-3.337a2.266,2.266,0,0,1,2.374-1.28c3.19.063,3.191.018,3.191,3.18q0,4.153,0,8.306c0,.5-.045,1-.073,1.569h-4.458v-5.84l-.329-.111Z" transform="translate(-137.675 -155.923)"/><path d="M61.058-375.16v-5.279h4.45v12.979c-1.173,0-2.29.059-3.4-.032A1.933,1.933,0,0,1,61-368.164c-1.454-1.642-2.862-3.324-4.588-5.346v5.977H51.92V-380.3a4.7,4.7,0,0,1,5.738,1.543q1.507,1.766,3.037,3.513C60.738-375.2,60.851-375.206,61.058-375.16Z" transform="translate(-196.933 -155.686)"/><path d="M-81.233-367.778c-3-.036-5.4-1.193-6.767-3.935a6.121,6.121,0,0,1,.77-6.984,7.31,7.31,0,0,1,7.532-2.657c4.176.845,6.308,3.677,5.912,7.688C-74.115-370.338-77.349-367.783-81.233-367.778Zm0-3.906a2.821,2.821,0,0,0,2.933-2.9,2.95,2.95,0,0,0-2.83-3.052,2.817,2.817,0,0,0-2.9,2.928A2.8,2.8,0,0,0-81.234-371.683Z" transform="translate(-95.903 -155.069)"/><path d="M118.237-379.492l-2.427,2.859a19.4,19.4,0,0,0-1.937-.879,3.055,3.055,0,0,0-3.471.828,3.2,3.2,0,0,0-.507,3.663,3.114,3.114,0,0,0,3.066,1.824c1.186.027,1.79-.427,1.342-1.775l-2.09-.214v-2.441h6.565c0,1.819.036,3.631-.033,5.44a1.459,1.459,0,0,1-.719.924,9.591,9.591,0,0,1-9.277.57A6.16,6.16,0,0,1,105-374.364a6.39,6.39,0,0,1,3.182-6.024A8.609,8.609,0,0,1,118.237-379.492Z" transform="translate(-235.051 -155.02)"/><path d="M-123.944-378.071l-3.463,1.962c-2.246-1.787-3.459-1.939-4.606-.6a3.4,3.4,0,0,0,.2,4.372c1.217,1.116,2.777.8,4.391-.938l3.519,1.924c-1.286,2.757-4.475,4.122-7.922,3.457a6.788,6.788,0,0,1-5.537-6.391,6.8,6.8,0,0,1,4.914-6.887C-128.922-382.2-125.647-381.053-123.944-378.071Z" transform="translate(-60.981 -155.067)"/><path d="M34.163-366.909H29.821v-12.913h4.342Z" transform="translate(-181.061 -156.302)"/></g></svg>