<svg xmlns="http://www.w3.org/2000/svg" viewBox="0 0 168.38 96.26"><g id="Layer_2" data-name="Layer 2"><g id="Layer_1-2" data-name="Layer 1"><path d="M156,15.85a12.37,12.37,0,0,0-9.34,20.49L128.18,48A25.12,25.12,0,0,1,93.1,39.4L84.45,24.61a12.38,12.38,0,1,0-3.57,0L73.42,38.35a25.14,25.14,0,0,1-35.64,9.14L21.24,36.88a12.38,12.38,0,1,0-8.86,3.74,12.47,12.47,0,0,0,4.07-.7L37,96.26h92.84L151.33,39.7A12.38,12.38,0,1,0,156,15.85ZM92.15,83.52l-9.54-5-9.54,5L74.89,72.9l-7.72-7.52,10.67-1.55,4.77-9.66,4.77,9.66L98,65.38,90.33,72.9Z"/></g></g></svg>