<svg xmlns="http://www.w3.org/2000/svg" width="26.285" height="26.403" viewBox="0 0 26.285 26.403">
  <g id="Group_1544" data-name="Group 1544" transform="translate(0 0)">
    <path id="Path_1083" data-name="Path 1083" d="M807.436-579.082c.041.026.068.074.108.1.11.085.191.28.367.169.149-.093.082-.273.079-.417a.738.738,0,0,0-.158-.334c-.068-.119-.187-.242-.184-.361.016-.549-.46-.714-.761-1.111C806.808-580.246,806.722-579.548,807.436-579.082Z" transform="translate(-788.213 591.413)" />
    <path id="Path_1084" data-name="Path 1084" d="M789.523-576.75a.507.507,0,0,0-.481.481.507.507,0,0,0,.481.481.51.51,0,0,0,.482-.481A.508.508,0,0,0,789.523-576.75Z" transform="translate(-780.138 589.47)" />
    <path id="Path_1085" data-name="Path 1085" d="M797.478-585.725c.533-.325,1.033-.7,1.547-1.055v-.117c-.534-.361-1.063-.729-1.6-1.079-.342-.221-.4-.443-.1-.748.232-.238.433-.5.653-.752.7-.788.7-.787-.324-1.142-.332-.115-.661-.241-1-.348s-.41-.3-.243-.619c.244-.467.465-.947.7-1.421.151-.31.072-.48-.29-.5-.487-.032-.973-.113-1.459-.107s-.612-.208-.515-.649c.1-.477.179-.959.275-1.438.075-.375-.051-.513-.436-.427-.457.1-.922.169-1.379.27s-.7-.036-.7-.55c0-.447-.08-.895-.092-1.342-.013-.49-.237-.5-.6-.321-.436.22-.882.418-1.317.641-.317.162-.509.092-.622-.251-.165-.5-.358-.992-.518-1.494-.123-.382-.305-.4-.584-.149s-.556.492-.841.73c-.8.672-.634.761-1.282-.2-.284-.419-.581-.831-.871-1.246h-.117c-.364.554-.739,1.1-1.089,1.666-.2.316-.383.327-.648.085-.359-.33-.752-.625-1.1-.962-.383-.368-.58-.26-.721.205-.124.41-.312.8-.423,1.216-.144.539-.419.573-.856.322-.371-.214-.773-.374-1.152-.575-.411-.218-.571-.059-.6.356-.035.506-.088,1.011-.113,1.517-.016.344-.177.438-.495.371-.516-.107-1.038-.185-1.551-.3-.408-.094-.495.091-.431.434.093.5.185,1,.3,1.493.093.411-.061.577-.472.593-.487.018-.972.085-1.459.109-.392.019-.48.2-.322.53.216.459.423.924.661,1.371.185.346.106.54-.259.659-.5.163-1,.344-1.495.514-.33.112-.382.288-.146.554.349.4.682.8,1.035,1.2.254.281.247.486-.09.7-.542.347-1.064.726-1.594,1.091v.117c.524.375,1.038.764,1.576,1.118.356.234.364.442.083.744-.347.371-.661.772-.99,1.158-.229.268-.173.443.161.554.426.143.847.3,1.27.45.665.236.663.235.346.9-.2.423-.4.849-.6,1.274-.119.255-.065.411.24.432.487.034.973.08,1.461.1.458.022.7.172.563.693-.122.471-.188.958-.272,1.439-.058.333.073.482.422.411.478-.1.959-.186,1.436-.286.384-.08.6.036.622.459.021.448.067.9.1,1.343.05.61.132.661.666.406a12.268,12.268,0,0,0,1.151-.582c.478-.294.693-.137.819.361.106.416.264.818.4,1.224.206.6.229.6.726.177.342-.292.686-.582,1.011-.893s.548-.3.788.092c.327.532.688,1.044,1.034,1.564H786c.366-.575.741-1.146,1.1-1.727.177-.289.332-.247.549-.043.412.387.849.748,1.266,1.132.273.251.423.189.533-.148.169-.519.369-1.029.533-1.549.112-.352.3-.411.618-.253.47.237.948.46,1.423.688.3.145.473.091.489-.286.021-.487.082-.972.109-1.458.023-.43.226-.6.649-.509.458.1.919.18,1.378.275.4.082.552-.063.47-.467-.085-.421-.156-.844-.231-1.267-.11-.619.007-.761.65-.8.389-.022.779-.046,1.169-.064.452-.02.594-.2.362-.625-.24-.447-.443-.913-.67-1.367-.145-.291-.084-.474.239-.577.5-.161.994-.351,1.5-.511.362-.115.433-.286.175-.583-.32-.368-.605-.77-.951-1.112C796.973-585.257,797.065-585.473,797.478-585.725Zm-7.909-6.648c.221-.187.468-.265.7-.021.956,1,1.913,2.008,2.855,3.026a1.46,1.46,0,0,1,.357,1.038c-.008,1.649,0,3.3,0,4.948a3.213,3.213,0,0,1-.118.892l-.985-.985c0-.94,0-1.88,0-2.821a.623.623,0,0,0-.209-.5c-.245-.231-.469-.487-.72-.711a1.537,1.537,0,0,1-.556-1.337,2.5,2.5,0,0,0-.961-2.394,2.842,2.842,0,0,1-.419-.478A.434.434,0,0,1,789.569-592.373Zm-1.378-1.167c.694,0,.786.09.786.77,0,1.837.008,3.674-.006,5.511,0,.343.069.486.45.479a1.326,1.326,0,0,1,1.526,1.335c.025.2.039.4.058.6l-3.594-3.594h.4c.418,0,.512-.092.513-.5q.007-1.7,0-3.41c0-.442-.087-.53-.524-.531q-2.417,0-4.835,0l-.654-.654Zm1.057,13.554q-2.156,0-4.312,0c-1.424,0-2.849,0-4.274,0-.433,0-.6-.182-.588-.589.011-.312.165-.52.479-.5.374.024.425-.148.425-.466q-.01-4.449,0-8.9l.653.653c0,.272,0,.544,0,.817,0,.442.087.53.524.531h.824l6,6c0,.349,0,.7,0,1.048,0,.227.086.3.309.31.457.019.607.181.591.583C789.861-580.133,789.691-579.987,789.248-579.986Zm3.914.32-14.2-14.2.761-.761,14.2,14.2Z" transform="translate(-772.74 600.039)" />
  </g>
</svg>
