<svg xmlns="http://www.w3.org/2000/svg" viewBox="0 0 218.78 174.65"><g id="Layer_2" data-name="Layer 2"><g id="Layer_1-2" data-name="Layer 1"><path d="M191,1.88c-18.84-5.11-34.76,1.17-48.25,14.39-2.29,2.25-3.8,2.61-6.68,1.41-17.8-7.44-35.72-7.43-53.51,0-3,1.24-4.46.77-6.65-1.51C66,5.91,53.72.67,39.48,0,15.36.07-2.39,19.89.26,43.78a54.25,54.25,0,0,0,46,47.62c2.41.37,4.21.55,4.66,3.67A125.43,125.43,0,0,0,59,125.38c1.14,2.76.6,4.08-2.68,4.46-8.68,1-17.32,2.27-26,3.53-3.56.52-6.86,1.9-5.94,6.29.82,3.92,4,4.08,7.5,3.56,10-1.47,20.09-2.6,30.1-4.12,4.51-.69,5.45,2.82,6.44,5.46,1.18,3.13-2.32,2.79-4,3.41-6.37,2.39-12.83,4.57-19.28,6.76-3.32,1.13-6,3-4.75,6.81s4.46,3.82,7.79,2.66c7.26-2.53,14.62-4.8,21.78-7.59,4.23-1.64,7.15-1.41,10.52,2.2a56.45,56.45,0,0,0,24.23,15.09,14.15,14.15,0,0,0,9.2,0,60.71,60.71,0,0,0,25.37-16.18c2.29-2.4,4.35-2.8,7.39-1.68,7.7,2.84,15.52,5.36,23.27,8.07,3.46,1.2,6.88,1.61,8.21-2.63,1.22-3.89-1.58-5.62-4.87-6.74q-10.41-3.54-20.79-7.23c-1.2-.43-2.88-.49-2.66-2.57.32-3.11,4.08-6.06,7.36-5.62,9.69,1.3,19.39,2.55,29.07,4,3.61.53,7.11.54,7.91-3.7.91-4.79-3-5.77-6.55-6.3-8.29-1.22-16.59-2.5-24.92-3.36-4-.41-4.18-2-2.89-5.1A120.35,120.35,0,0,0,167.58,96c.48-3.24,1.75-4.21,4.9-4.67a54.59,54.59,0,0,0,45.06-41.45C222.67,28.22,211.46,7.44,191,1.88ZM86.57,110.22a9.47,9.47,0,1,1,.16-18.94c5,.1,9.43,4.41,9.48,9.25A9.94,9.94,0,0,1,86.57,110.22ZM121.76,139l-9.09,13.19a4,4,0,0,1-6.56,0L97,139a4,4,0,0,1,3.28-6.25h18.18A4,4,0,0,1,121.76,139ZM132,110.22a9.93,9.93,0,0,1-9.57-9.75c.09-5,4.88-9.42,10.07-9.18a9.47,9.47,0,0,1-.5,18.93Z"/></g></g></svg>