<svg xmlns="http://www.w3.org/2000/svg" width="43.706" height="35.698" viewBox="0 0 43.706 35.698">
  <g id="Group_1884" data-name="Group 1884" transform="translate(-562.647 -209.652)">
    <g id="Path_3076" data-name="Path 3076" transform="translate(-526.534 609.137)" fill="none">
      <path d="M1125.844-397.143c-3.418-.928-6.309.212-8.757,2.612a.925.925,0,0,1-1.213.255,12.138,12.138,0,0,0-9.711.006.9.9,0,0,1-1.207-.275,9.468,9.468,0,0,0-6.61-2.939,7.053,7.053,0,0,0-7.117,7.946,9.848,9.848,0,0,0,8.354,8.643c.438.066.765.1.846.665a22.814,22.814,0,0,0,1.462,5.5,19.645,19.645,0,0,0,1.717,3.48,13.333,13.333,0,0,0,2.194,2.588,10.252,10.252,0,0,0,4.4,2.738,2.569,2.569,0,0,0,1.67-.007,11.016,11.016,0,0,0,4.6-2.938,19.7,19.7,0,0,0,3.726-5.967,21.9,21.9,0,0,0,1.4-5.226c.086-.587.317-.762.89-.846a9.908,9.908,0,0,0,8.177-7.523A7.053,7.053,0,0,0,1125.844-397.143Zm-18.95,19.663a1.765,1.765,0,0,1-1.709-1.78,1.775,1.775,0,0,1,1.737-1.657,1.779,1.779,0,0,1,1.72,1.679A1.806,1.806,0,0,1,1106.894-377.48Zm6.386,5.226-1.65,2.394a.724.724,0,0,1-1.191,0l-1.65-2.394a.723.723,0,0,1,.6-1.134h3.3A.723.723,0,0,1,1113.28-372.254Zm1.867-5.227a1.8,1.8,0,0,1-1.737-1.77,1.778,1.778,0,0,1,1.827-1.667,1.775,1.775,0,0,1,1.63,1.762A1.765,1.765,0,0,1,1115.146-377.481Z" stroke="none"/>
      <path d="M 1098.345947265625 -397.4850158691406 C 1093.970092773438 -397.4717102050781 1090.747924804688 -393.8742370605469 1091.229248046875 -389.5394897460938 C 1091.721435546875 -385.1087646484375 1095.131469726562 -381.5704345703125 1099.582763671875 -380.8961791992188 C 1100.020874023438 -380.8299560546875 1100.347290039062 -380.79638671875 1100.428833007812 -380.231201171875 C 1100.701416015625 -378.3433532714844 1101.158203125 -376.4975891113281 1101.890869140625 -374.7293395996094 C 1102.097900390625 -374.2295227050781 1102.63037109375 -372.7661743164062 1103.608276367188 -371.249267578125 C 1104.586181640625 -369.7323608398438 1105.191528320312 -369.3169250488281 1105.802734375 -368.6617431640625 C 1107.0078125 -367.3697204589844 1108.505126953125 -366.4758911132812 1110.200073242188 -365.923583984375 C 1110.770874023438 -365.73779296875 1111.30078125 -365.7443237304688 1111.86962890625 -365.9303588867188 C 1113.66015625 -366.5158081054688 1115.186401367188 -367.5151062011719 1116.474609375 -368.867919921875 C 1118.739990234375 -371.212890625 1119.965576171875 -374.2672729492188 1120.200927734375 -374.8351440429688 C 1120.896606445312 -376.5139465332031 1121.333129882812 -378.2691040039062 1121.596313476562 -380.06103515625 C 1121.682373046875 -380.6478881835938 1121.9130859375 -380.8232727050781 1122.48583984375 -380.9068908691406 C 1126.490966796875 -381.4924011230469 1129.73046875 -384.4971618652344 1130.662353515625 -388.4296875 C 1131.5947265625 -392.3633117675781 1129.559692382812 -396.1346740722656 1125.844360351562 -397.1432800292969 C 1122.426391601562 -398.0714111328125 1119.53564453125 -396.931396484375 1117.08740234375 -394.5315551757812 C 1116.671630859375 -394.1240539550781 1116.398071289062 -394.0579528808594 1115.874755859375 -394.2765808105469 C 1112.644409179688 -395.6260681152344 1109.391967773438 -395.6238403320312 1106.16357421875 -394.2705993652344 C 1105.628662109375 -394.0462951660156 1105.354858398438 -394.1311340332031 1104.956420898438 -394.5455932617188 C 1103.161010742188 -396.4120483398438 1100.931396484375 -397.3633728027344 1098.345947265625 -397.4850158691406 M 1115.145629882812 -377.4805297851562 C 1114.223754882812 -377.4805297851562 1113.393310546875 -378.3267517089844 1113.409301757812 -379.2504577636719 C 1113.424682617188 -380.1436462402344 1114.249145507812 -380.9191589355469 1115.162231445312 -380.9191589355469 C 1115.186889648438 -380.9191589355469 1115.21142578125 -380.9185791015625 1115.236206054688 -380.9174499511719 C 1116.123168945312 -380.8764038085938 1116.889038085938 -380.0484619140625 1116.866455078125 -379.1549987792969 C 1116.84375 -378.2562561035156 1116.04736328125 -377.4812927246094 1115.146484375 -377.4805297851562 C 1115.146240234375 -377.4805297851562 1115.145874023438 -377.4805297851562 1115.145629882812 -377.4805297851562 M 1106.906127929688 -377.4803771972656 C 1106.901977539062 -377.4803771972656 1106.898071289062 -377.4803771972656 1106.893920898438 -377.4804077148438 C 1105.95703125 -377.4880065917969 1105.143432617188 -378.3357543945312 1105.184936523438 -379.2607727050781 C 1105.225219726562 -380.1518859863281 1106.019287109375 -380.9184265136719 1106.894165039062 -380.9184265136719 C 1106.903442382812 -380.9184265136719 1106.912719726562 -380.9183654785156 1106.921997070312 -380.9181823730469 C 1107.83154296875 -380.9013061523438 1108.63427734375 -380.117431640625 1108.642211914062 -379.2388610839844 C 1108.650268554688 -378.3187866210938 1107.820556640625 -377.4803771972656 1106.906127929688 -377.4803771972656 M 1111.034423828125 -369.5473327636719 C 1110.808471679688 -369.5473327636719 1110.582641601562 -369.651611328125 1110.43896484375 -369.8601379394531 L 1108.7890625 -372.2539978027344 C 1108.458251953125 -372.7338562011719 1108.801879882812 -373.387939453125 1109.384765625 -373.387939453125 L 1112.684326171875 -373.387939453125 C 1113.26708984375 -373.387939453125 1113.610717773438 -372.7338562011719 1113.279907226562 -372.2539978027344 L 1111.630249023438 -369.8601379394531 C 1111.486328125 -369.651611328125 1111.260375976562 -369.5473327636719 1111.034423828125 -369.5473327636719 M 1098.389892578125 -399.4851379394531 L 1098.43994140625 -399.4827880859375 C 1101.392456054688 -399.3439025878906 1103.925537109375 -398.2899780273438 1105.978271484375 -396.3482055664062 C 1107.645385742188 -396.9715576171875 1109.340454101562 -397.2871398925781 1111.025756835938 -397.2871398925781 C 1112.716918945312 -397.2871398925781 1114.418090820312 -396.9694213867188 1116.0908203125 -396.3419494628906 C 1118.35791015625 -398.4151611328125 1120.854370117188 -399.4654541015625 1123.518798828125 -399.4654541015625 C 1124.451782226562 -399.4654235839844 1125.410400390625 -399.3335266113281 1126.368408203125 -399.0733947753906 C 1128.6875 -398.4438171386719 1130.5986328125 -396.9423828125 1131.74951171875 -394.8457336425781 C 1132.870483398438 -392.8034362792969 1133.175537109375 -390.3610534667969 1132.6083984375 -387.9684143066406 C 1132.058227539062 -385.6463012695312 1130.8388671875 -383.5626525878906 1129.082397460938 -381.9429016113281 C 1127.489868164062 -380.4742431640625 1125.557861328125 -379.4818725585938 1123.4599609375 -379.0485534667969 C 1123.1474609375 -377.2370300292969 1122.68359375 -375.60205078125 1122.048583984375 -374.0694885253906 L 1122.028930664062 -374.02197265625 C 1120.95361328125 -371.4169311523438 1119.532348632812 -369.1563110351562 1117.918334960938 -367.4838562011719 C 1116.374877929688 -365.8644104003906 1114.548950195312 -364.7022094726562 1112.4912109375 -364.0293884277344 C 1112.000366210938 -363.868896484375 1111.505615234375 -363.7875061035156 1111.020751953125 -363.7875061035156 C 1110.54296875 -363.7875061035156 1110.05859375 -363.8663330078125 1109.580932617188 -364.0218200683594 C 1107.497436523438 -364.7007446289062 1105.734375 -365.8028259277344 1104.340209960938 -367.2975769042969 C 1104.2236328125 -367.4225158691406 1104.099975585938 -367.5436706542969 1103.956787109375 -367.6839599609375 C 1103.437255859375 -368.1928405761719 1102.790771484375 -368.826171875 1101.92724609375 -370.1655883789062 C 1100.965209960938 -371.6580505371094 1100.397827148438 -373.078125 1100.125122070312 -373.7605590820312 C 1100.093139648438 -373.8404541015625 1100.06591796875 -373.9087829589844 1100.043090820312 -373.9639892578125 C 1099.3935546875 -375.5317687988281 1098.916625976562 -377.2011108398438 1098.593383789062 -379.0433044433594 C 1096.25 -379.53564453125 1094.149169921875 -380.6941528320312 1092.482666015625 -382.4198608398438 C 1090.679321289062 -384.2872924804688 1089.528198242188 -386.7373657226562 1089.241455078125 -389.3186950683594 C 1089.093017578125 -390.6558532714844 1089.21875 -391.9646606445312 1089.615234375 -393.2088623046875 C 1090.0009765625 -394.4192810058594 1090.62353515625 -395.5114135742188 1091.465454101562 -396.4549255371094 C 1092.310546875 -397.4020385742188 1093.330322265625 -398.1472473144531 1094.496215820312 -398.6698303222656 C 1095.693725585938 -399.2066345214844 1096.98681640625 -399.4808959960938 1098.33984375 -399.4850158691406 L 1098.389892578125 -399.4851379394531 Z" stroke="none" fill="#2c5cde"/>
    </g>
    <circle id="Ellipse_263" data-name="Ellipse 263" cx="0.5" cy="0.5" r="0.5" transform="translate(580 229)" fill="#fafafa"/>
    <circle id="Ellipse_264" data-name="Ellipse 264" cx="0.5" cy="0.5" r="0.5" transform="translate(588 229)" fill="#fafafa"/>
    <line id="Line_215" data-name="Line 215" x2="10" y2="2" transform="translate(590.5 235.5)" fill="none" stroke="#2c5cde" stroke-linecap="round" stroke-width="2"/>
    <line id="Line_216" data-name="Line 216" x2="6" y2="3" transform="translate(590.5 238.5)" fill="none" stroke="#2c5cde" stroke-linecap="round" stroke-width="2"/>
    <line id="Line_217" data-name="Line 217" x1="10" y2="2" transform="translate(567.5 235.5)" fill="none" stroke="#2c5cde" stroke-linecap="round" stroke-width="2"/>
    <line id="Line_218" data-name="Line 218" x1="7" y2="3" transform="translate(571.5 238.5)" fill="none" stroke="#2c5cde" stroke-linecap="round" stroke-width="2"/>
  </g>
</svg>
