<svg xmlns="http://www.w3.org/2000/svg" width="24.247" height="23.666" viewBox="0 0 24.247 23.666">
  <g id="Group_1606" data-name="Group 1606" transform="translate(0 0)">
    <path id="Path_1128" data-name="Path 1128" d="M3911.642,193.845a3.686,3.686,0,0,1,.714-1.652,13.68,13.68,0,0,1,1.193-1.212c.789-.771,1.575-1.545,2.366-2.313a3.624,3.624,0,0,1,3.258-1.051,3.533,3.533,0,0,1,1.808.869c.1.093.118.164.012.268-.589.579-1.172,1.164-1.757,1.746a.21.21,0,0,1-.206.076,1.866,1.866,0,0,0-1.773.586c-.683.658-1.376,1.306-2.03,1.993a1.668,1.668,0,0,0,.015,2.4c.623.643,1.262,1.274,1.919,1.882a1.758,1.758,0,0,0,2.524-.044c.644-.614,1.279-1.239,1.912-1.865a1.978,1.978,0,0,0,.662-1.774.236.236,0,0,1,.092-.22l1.715-1.647c.18-.174.2-.17.361.017a3.393,3.393,0,0,1,.877,2.278,3.263,3.263,0,0,1-.881,2.351c-1.019,1.078-2.118,2.076-3.168,3.124a4.913,4.913,0,0,1-1.163.92,4.8,4.8,0,0,1-1.168.395h-1.085a6.008,6.008,0,0,1-.956-.295,5.417,5.417,0,0,1-1.631-1.278c-.688-.667-1.362-1.35-2.043-2.026a5.42,5.42,0,0,1-1.25-1.532,5.066,5.066,0,0,1-.317-.99Z" transform="translate(-3911.642 -177.307)" />
    <path id="Path_1129" data-name="Path 1129" d="M3945.354,175.231a3.788,3.788,0,0,1-.765,1.65c-.32.373-.685.7-1.035,1.043-.814.8-1.636,1.593-2.451,2.392a4.053,4.053,0,0,1-1.375.948,3.571,3.571,0,0,1-2.7-.015,3.706,3.706,0,0,1-1.015-.626c-.113-.095-.135-.169-.019-.281q.862-.835,1.716-1.678a.278.278,0,0,1,.248-.074,1.991,1.991,0,0,0,1.663-.573c.741-.709,1.487-1.413,2.2-2.151a1.619,1.619,0,0,0-.034-2.388c-.666-.666-1.3-1.364-2.026-1.967a1.722,1.722,0,0,0-2.1.014c-.442.358-.817.787-1.23,1.175-.385.361-.762.733-1.135,1.109a1.927,1.927,0,0,0-.569,1.138,1.349,1.349,0,0,0,.033.46.218.218,0,0,1-.062.227c-.578.553-1.157,1.1-1.729,1.663-.136.133-.221.113-.341-.022a3.391,3.391,0,0,1,.11-4.681q1.824-1.854,3.727-3.628a3.238,3.238,0,0,1,1.593-.75c.044-.01.087-.023.13-.034h1.085c.043.012.086.026.13.034a3.566,3.566,0,0,1,1.844.961c.933.911,1.849,1.839,2.779,2.753a7.469,7.469,0,0,1,.649.689,3.724,3.724,0,0,1,.679,1.566Z" transform="translate(-3921.107 -168.182)" />
    <path id="Path_1130" data-name="Path 1130" d="M3934.977,185.166a.953.953,0,0,1-.307.721l-1.736,1.726c-.57.567-1.133,1.14-1.71,1.7-.462.447-.885.937-1.386,1.341a1.009,1.009,0,0,1-1.486-1.283,1.67,1.67,0,0,1,.329-.413q1-.995,2-1.985,1.262-1.252,2.524-2.5a1.016,1.016,0,0,1,1.624.132A.908.908,0,0,1,3934.977,185.166Z" transform="translate(-3919.456 -175.689)" />
  </g>
</svg>
