<?xml version="1.0" encoding="UTF-8" standalone="no"?>
<svg
   xmlns:dc="http://purl.org/dc/elements/1.1/"
   xmlns:cc="http://creativecommons.org/ns#"
   xmlns:rdf="http://www.w3.org/1999/02/22-rdf-syntax-ns#"
   xmlns:svg="http://www.w3.org/2000/svg"
   xmlns="http://www.w3.org/2000/svg"
   xmlns:sodipodi="http://sodipodi.sourceforge.net/DTD/sodipodi-0.dtd"
   xmlns:inkscape="http://www.inkscape.org/namespaces/inkscape"
   viewBox="0 0 4400 820.00002"
   version="1.1"
   id="svg26"
   sodipodi:docname="adex-staking.svg"
   width="4400"
   height="820"
   inkscape:version="0.92.4 5da689c313, 2019-01-14">
  <metadata
     id="metadata30">
    <rdf:RDF>
      <cc:Work
         rdf:about="">
        <dc:format>image/svg+xml</dc:format>
        <dc:type
           rdf:resource="http://purl.org/dc/dcmitype/StillImage" />
        <dc:title>adex-vector-logo</dc:title>
      </cc:Work>
    </rdf:RDF>
  </metadata>
  <sodipodi:namedview
     pagecolor="#ffffff"
     bordercolor="#666666"
     borderopacity="1"
     objecttolerance="10"
     gridtolerance="10"
     guidetolerance="10"
     inkscape:pageopacity="0"
     inkscape:pageshadow="2"
     inkscape:window-width="1920"
     inkscape:window-height="1023"
     id="namedview28"
     showgrid="false"
     inkscape:pagecheckerboard="true"
     inkscape:zoom="0.30918244"
     inkscape:cx="2868.2643"
     inkscape:cy="315.27907"
     inkscape:window-x="0"
     inkscape:window-y="0"
     inkscape:window-maximized="1"
     inkscape:current-layer="svg26" />
  <defs
     id="defs12">
    <style
       id="style10">.cls-1{fill:#ffffff;}.cls-2{fill:#ffffff;}</style>
  </defs>
  <title
     id="title14">adex-vector-logo</title>
  <g
     id="Layer_2"
     data-name="Layer 2"
     transform="translate(0,26.02)">
    <g
       id="Layer_1-2"
       data-name="Layer 1">
      <polygon
         class="cls-1"
         points="470.25,235.08 382.58,147.4 235.13,294.85 87.67,147.4 0,235.08 147.45,382.53 0,529.98 87.67,617.65 235.13,470.2 382.58,617.65 470.25,529.98 322.8,382.53 "
         id="polygon16"
         style="fill:#ffffff" />
      <polyline
         class="cls-2"
         points="183.93 51.2 97.82 137.31 170.36 209.85 235.13 144.3 299.89 209.85 372.44 137.31 286.33 51.2 235.13 0 183.93 51.2"
         id="polyline18"
         style="fill:#ffffff" />
      <polyline
         class="cls-2"
         points="183.93 714.78 97.82 628.67 170.36 556.13 235.13 621.67 299.89 556.13 372.44 628.67 286.33 714.78 235.13 765.98 183.93 714.78"
         id="polyline20"
         style="fill:#ffffff" />
    </g>
  </g>
  <g
     aria-label="AdEx Staking"
     style="font-style:normal;font-variant:normal;font-weight:300;font-stretch:normal;font-size:650.70379639px;line-height:1.25;font-family:'Open Sans';-inkscape-font-specification:'Open Sans Light';letter-spacing:0px;word-spacing:0px;fill:#000000;fill-opacity:1;stroke:none;stroke-width:16.26759529"
     id="text34">
    <path
       d="M 845.73012,483.83586 H 657.0006 L 592.1844,647.78271 H 556.28131 L 743.10447,181.36027 h 20.65222 L 946.76713,647.78271 H 910.22859 Z M 668.75648,454.60503 H 834.92742 L 771.69985,287.16318 q -7.94316,-19.69904 -19.06358,-54.64895 -8.57862,30.50174 -18.74587,55.2844 z"
       style="fill:#ffffff;stroke-width:16.26759529"
       id="path46" />
    <path
       d="m 1131.0485,295.74179 q 37.4917,0 64.8162,13.66224 27.3244,13.66224 48.9298,46.70579 h 1.9064 q -1.9064,-40.03353 -1.9064,-78.47843 V 153.40034 h 31.1372 v 494.38237 h -20.6522 l -7.9431,-52.74259 h -2.5419 q -39.398,59.09712 -113.1106,59.09712 -71.4884,0 -109.2979,-44.4817 -37.80943,-44.48171 -37.80943,-129.6324 0,-89.59886 37.49173,-136.9401 37.4917,-47.34125 108.9802,-47.34125 z m 0,28.59539 q -56.5553,0 -85.1507,39.7158 -28.2777,39.71581 -28.2777,115.33471 0,146.78963 114.0638,146.78963 58.4617,0 85.7862,-33.99674 27.3244,-33.99673 27.3244,-112.15744 v -5.40135 q 0,-80.06707 -27.0067,-115.01698 -26.689,-35.26763 -86.7393,-35.26763 z"
       style="fill:#ffffff;stroke-width:16.26759529"
       id="path48" />
    <path
       d="M 1653.7085,647.78271 H 1399.8451 V 183.26663 h 253.8634 v 29.86628 h -221.4553 v 175.70274 h 209.064 v 29.86628 h -209.064 v 199.2145 h 221.4553 z"
       style="fill:#ffffff;stroke-width:16.26759529"
       id="path50" />
    <path
       d="M 1835.7658,470.17362 1715.3475,302.41405 h 36.2208 l 102.9434,145.51872 101.9902,-145.51872 h 34.6322 l -118.512,167.75957 127.0906,177.60909 h -36.5386 L 1854.5117,493.68538 1745.2138,647.78271 h -34.6322 z"
       style="fill:#ffffff;stroke-width:16.26759529"
       id="path52" />
    <path
       d="m 2508.3927,527.99984 q 0,58.14394 -42.8931,92.14067 -42.5753,33.99673 -113.4283,33.99673 -85.1507,0 -130.5856,-18.74586 v -32.4081 q 50.2008,21.28768 128.0438,21.28768 57.1907,0 90.552,-26.05357 33.679,-26.3713 33.679,-68.94665 0,-26.37129 -11.1204,-43.52852 -11.1204,-17.47496 -36.2208,-31.77265 -25.1004,-14.29769 -73.7126,-30.81946 -71.1707,-24.46494 -98.4952,-52.7426 -27.0067,-28.59538 -27.0067,-75.93662 0,-52.10714 40.669,-84.83297 40.9867,-33.04355 105.1674,-33.04355 65.4517,0 122.9602,24.78266 l -11.7559,27.95993 q -57.8262,-24.14721 -110.5688,-24.14721 -51.4717,0 -81.9734,23.82949 -30.5018,23.82948 -30.5018,64.81619 0,25.73585 9.2141,42.25762 9.5318,16.52178 30.8195,29.86629 21.2876,13.02679 73.077,31.45492 54.3313,18.74586 81.6557,36.53855 27.3245,17.47495 39.7159,40.03353 12.709,22.24085 12.709,54.0135 z"
       style="fill:#ffffff;stroke-width:16.26759529"
       id="path54" />
    <path
       d="m 2689.8146,626.17732 q 29.8662,0 52.1071,-5.08363 v 25.41812 q -22.8763,7.62543 -52.7426,7.62543 -45.7526,0 -67.6757,-24.46493 -21.6054,-24.46494 -21.6054,-76.88981 V 329.73853 h -51.154 v -18.42814 l 51.154,-14.29769 15.8863,-78.16071 h 16.204 v 83.56206 h 101.3548 v 27.32448 h -101.3548 v 218.5958 q 0,39.71581 13.98,58.7794 13.98,19.06359 43.8463,19.06359 z"
       style="fill:#ffffff;stroke-width:16.26759529"
       id="path56" />
    <path
       d="m 3026.2867,647.78271 -7.9431,-54.64895 h -2.5418 q -26.0536,33.36128 -53.6958,47.34125 -27.3245,13.66223 -64.8162,13.66223 -50.8362,0 -79.1139,-26.05357 -28.2777,-26.05357 -28.2777,-72.1239 0,-50.51851 41.9399,-78.47844 42.2577,-27.95993 122.007,-29.54856 l 65.7694,-1.90636 v -22.8763 q 0,-49.24761 -20.0168,-74.348 -20.0168,-25.10039 -64.4985,-25.10039 -47.9767,0 -99.4483,26.68903 l -11.7559,-27.32448 q 56.873,-26.68902 112.4751,-26.68902 56.8731,0 84.833,29.54856 28.2777,29.54856 28.2777,92.14067 v 229.71623 z m -127.0906,-22.24085 q 55.2844,0 87.0571,-31.45492 32.0904,-31.77264 32.0904,-88.01023 v -33.99673 l -60.3681,2.54181 q -72.7593,3.49499 -103.8965,22.87631 -30.8195,19.06359 -30.8195,59.73257 0,32.4081 19.6991,50.51851 20.0167,17.79268 56.2375,17.79268 z"
       style="fill:#ffffff;stroke-width:16.26759529"
       id="path58" />
    <path
       d="m 3192.1401,496.22719 176.3382,-193.81314 h 38.1272 l -135.9869,147.42508 147.7428,197.94358 h -37.8095 l -131.221,-174.43182 -56.5553,51.47168 v 122.96014 h -31.4549 V 153.40034 h 31.4549 v 247.82664 l -2.2241,95.00021 z"
       style="fill:#ffffff;stroke-width:16.26759529"
       id="path60" />
    <path
       d="m 3507.6425,647.78271 h -31.4549 V 302.41405 h 31.4549 z m -35.9031,-441.32205 q 0,-30.50174 20.0168,-30.50174 9.8495,0 15.2509,7.94316 5.719,7.94316 5.719,22.55858 0,14.29769 -5.719,22.55858 -5.4014,8.26088 -15.2509,8.26088 -20.0168,0 -20.0168,-30.81946 z"
       style="fill:#ffffff;stroke-width:16.26759529"
       id="path62" />
    <path
       d="M 3864.1314,647.78271 V 423.78556 q 0,-52.10714 -21.9231,-75.6189 -21.9231,-23.82948 -67.9934,-23.82948 -61.9567,0 -90.8698,31.45492 -28.5954,31.13719 -28.5954,101.35474 v 190.63587 h -31.4549 V 302.41405 h 26.689 l 6.0368,47.34124 h 1.9064 q 33.679,-54.0135 119.7828,-54.0135 117.5588,0 117.5588,126.13741 v 225.90351 z"
       style="fill:#ffffff;stroke-width:16.26759529"
       id="path64" />
    <path
       d="m 4276.5405,302.41405 v 21.92313 l -71.4884,4.44817 q 28.5954,35.58536 28.5954,78.16071 0,49.88305 -33.3613,81.02024 -33.0436,30.81947 -88.9634,30.81947 -23.5118,0 -33.0436,-1.90636 -18.7458,9.84952 -28.5954,23.19403 -9.8495,13.34452 -9.8495,28.27766 0,16.52178 12.3914,24.14721 12.709,7.62544 42.2576,7.62544 h 60.368 q 56.2376,0 86.1039,22.8763 29.8663,22.55858 29.8663,67.04028 0,54.64896 -44.4817,84.19752 -44.164,29.86628 -126.1374,29.86628 -65.134,0 -101.0371,-25.10039 -35.5853,-25.10039 -35.5853,-69.89982 0,-35.58536 21.9231,-59.09712 22.2409,-23.51176 60.0503,-32.09037 -15.5686,-6.67226 -25.1004,-18.74586 -9.2141,-12.39134 -9.2141,-28.27766 0,-34.63218 44.164,-61.00348 -30.184,-12.39133 -47.0235,-38.76263 -16.8395,-26.68902 -16.8395,-61.00348 0,-51.78941 32.7258,-82.92661 33.0436,-31.45492 88.9634,-31.45492 33.9968,0 52.7426,6.67226 z m -279.5992,403.83033 q 0,71.17073 105.8029,71.17073 135.9869,0 135.9869,-86.73932 0,-31.1372 -21.2877,-45.11716 -21.2877,-13.97996 -68.9466,-13.97996 h -56.5553 q -95.0002,0 -95.0002,74.66571 z m 26.3713,-296.12106 q 0,40.03353 24.1472,62.27439 24.4649,21.92312 65.1339,21.92312 43.2108,0 66.0871,-21.92312 23.194,-21.92313 23.194,-63.5453 0,-44.16397 -23.8295,-66.0871 -23.5117,-22.24085 -66.0871,-22.24085 -41.3044,0 -65.1339,23.82948 -23.5117,23.51176 -23.5117,65.76938 z"
       style="fill:#ffffff;stroke-width:16.26759529"
       id="path66" />
  </g>
</svg>
