<svg xmlns="http://www.w3.org/2000/svg" width="19.759" height="19.749" viewBox="0 0 19.759 19.749">
  <g id="Group_1659" data-name="Group 1659" transform="translate(-945.955 485.702)">
    <path id="Path_1158" data-name="Path 1158" d="M955.83-477.875h-9.048a.812.812,0,0,1-.642-.251.651.651,0,0,1-.182-.443c0-.688-.009-1.377,0-2.065a1.355,1.355,0,0,1,1.306-1.261c.386-.008.772,0,1.159,0,.109,0,.139-.016.088-.131a2.607,2.607,0,0,1,2.116-3.649,2.587,2.587,0,0,1,2.1.713c.53.484,1.065.963,1.594,1.448.072.066.115.056.185,0a1.987,1.987,0,0,1,2.648-.009c.084.071.131.068.209,0,.537-.492,1.071-.986,1.617-1.467a2.5,2.5,0,0,1,2.666-.528,2.522,2.522,0,0,1,1.7,2.088,2.346,2.346,0,0,1-.185,1.378c-.073.159-.07.161.1.162.362,0,.723,0,1.085,0a1.355,1.355,0,0,1,1.36,1.345c.006.644,0,1.288,0,1.931a.73.73,0,0,1-.713.744c-.06,0-.119,0-.179,0Zm-3.563-4.021h1.425c.046,0,.108.021.128-.043s-.031-.089-.068-.123q-1.038-.941-2.078-1.882a1.074,1.074,0,0,0-.642-.281,1.171,1.171,0,0,0-1.281,1.1,1.164,1.164,0,0,0,1.181,1.231C951.377-481.894,951.822-481.9,952.267-481.9Zm7.1,0h.638c.213,0,.426,0,.638,0a1.533,1.533,0,0,0,.3-.026,1.167,1.167,0,0,0,.962-.981,1.145,1.145,0,0,0-.57-1.166,1.138,1.138,0,0,0-1.353.136c-.69.616-1.374,1.238-2.06,1.859-.039.035-.1.07-.074.133s.093.044.144.044C958.451-481.895,958.911-481.9,959.371-481.9Z" />
    <path id="Path_1159" data-name="Path 1159" d="M957.017-471.371v-5.185c0-.229,0-.23.229-.23h6.968c.235,0,.235,0,.235.242q0,4.511,0,9.019a1.564,1.564,0,0,1-.288,1.022,1.329,1.329,0,0,1-1.075.544c-1.966.007-3.932,0-5.9.006-.16,0-.173-.077-.173-.2Q957.02-468.763,957.017-471.371Z" />
    <path id="Path_1160" data-name="Path 1160" d="M954.651-471.369v5.2c0,.214,0,.215-.215.215q-2.9,0-5.792,0a1.363,1.363,0,0,1-1.409-1.4q0-4.605,0-9.209c0-.216,0-.217.21-.217h6.995c.211,0,.211,0,.211.218Q954.652-473.968,954.651-471.369Z" />
  </g>
</svg>
