<svg xmlns="http://www.w3.org/2000/svg" viewBox="0 0 164.77 134.6">
<defs>
<style>.cls-1{fill:#3c3c3c;}.cls-2{fill:#ff4266;}
</style>
</defs>
<g id="Layer_2" data-name="Layer 2">
<g id="Layer_1-2" data-name="Layer 1">
<polygon class="cls-1" points="63.93 50.11 73.68 59.86 82.38 51.05 91.09 59.86 100.84 50.11 89.26 38.54 82.38 31.66 75.5 38.54 63.93 50.11"/>
<polygon class="cls-1" points="82.38 115.21 73.68 106.4 63.93 116.15 75.5 127.72 82.38 134.6 89.26 127.72 100.84 116.15 91.09 106.4 82.38 115.21"/>
<polygon class="cls-2" points="115.19 82.27 106.49 73.46 96.74 83.21 108.31 94.78 115.19 101.66 122.07 94.78 133.65 83.21 123.9 73.46 115.19 82.27"/>
<polygon class="cls-2" points="68.03 83.21 58.28 73.46 49.58 82.27 40.87 73.46 31.12 83.21 42.69 94.78 49.58 101.66 56.46 94.78 68.03 83.21"/>
<polygon class="cls-2" points="113.98 19.39 122.69 28.2 132.44 18.45 120.86 6.88 113.98 0 107.1 6.88 95.53 18.45 105.28 28.2 113.98 19.39"/>
<polygon class="cls-2" points="50.78 19.39 59.49 28.2 69.24 18.45 57.66 6.88 50.78 0 43.9 6.88 32.33 18.45 42.08 28.2 50.78 19.39"/>
<polygon class="cls-2" points="18.72 51.41 27.22 43.01 17.81 33.6 6.64 44.77 0 51.41 6.64 58.05 17.81 69.22 27.22 59.81 18.72 51.41"/>
<polygon class="cls-2" points="158.13 44.77 146.95 33.6 137.54 43.01 146.05 51.41 137.54 59.81 146.95 69.22 158.13 58.05 164.77 51.41 158.13 44.77"/>
<polygon class="cls-2" points="70.6 19.81 50.78 39.63 30.97 19.81 19.19 31.59 39 51.41 19.19 71.22 29.65 81.69 81.06 30.27 70.6 19.81"/>
<polygon class="cls-2" points="145.58 31.59 133.8 19.81 113.98 39.63 94.2 19.84 83.75 30.3 135.13 81.67 145.58 71.22 125.76 51.41 145.58 31.59"/>
<polygon class="cls-1" points="95.39 81.84 95.39 81.84 113.98 63.25 113.95 63.22 113.96 63.21 102.18 51.43 82.38 71.22 82.41 71.25 82.38 71.29 82.35 71.25 82.38 71.22 62.6 51.44 50.79 63.26 70.6 83.07 69.21 84.46 69.2 84.45 50.75 102.9 50.78 102.94 50.81 102.91 62.57 114.67 82.38 94.85 102.2 114.67 113.95 102.91 113.98 102.94 114.01 102.92 94.16 83.07 95.39 81.84"/>
</g>
</g>
</svg>