<svg xmlns="http://www.w3.org/2000/svg" xmlns:xlink="http://www.w3.org/1999/xlink" width="237.372" height="239.064" viewBox="0 0 237.372 239.064">
  <defs>
    <filter id="Path_1168" x="11.521" y="113.598" width="145.899" height="118.003" filterUnits="userSpaceOnUse">
      <feOffset dx="10" dy="3" input="SourceAlpha"/>
      <feGaussianBlur stdDeviation="3" result="blur"/>
      <feFlood flood-opacity="0.161"/>
      <feComposite operator="in" in2="blur"/>
      <feComposite in="SourceGraphic"/>
    </filter>
    <filter id="Path_1169" x="9.921" y="115.427" width="145.901" height="118.003" filterUnits="userSpaceOnUse">
      <feOffset dx="-10" dy="3" input="SourceAlpha"/>
      <feGaussianBlur stdDeviation="3" result="blur-2"/>
      <feFlood flood-opacity="0.161"/>
      <feComposite operator="in" in2="blur-2"/>
      <feComposite in="SourceGraphic"/>
    </filter>
    <filter id="Path_1170" x="0" y="144.227" width="163.528" height="94.837" filterUnits="userSpaceOnUse">
      <feOffset dy="3" input="SourceAlpha"/>
      <feGaussianBlur stdDeviation="5" result="blur-3"/>
      <feFlood flood-opacity="0.161"/>
      <feComposite operator="in" in2="blur-3"/>
      <feComposite in="SourceGraphic"/>
    </filter>
  </defs>
  <g id="Group_1695" data-name="Group 1695" transform="translate(-96.002 -732)">
    <path id="Path_1171" data-name="Path 1171" d="M-6223.623-543.645c-54.988,33.69-83.644,70.09-51.5,92.163s70.089,52.664,96.034,30.592,22.459-46.081,45.307-60.022,42.209-67.767-6.583-75.511S-6223.623-543.645-6223.623-543.645Z" transform="translate(6443.376 1355.756)" fill="#fff" opacity="0.1"/>
    <g id="Group_1658" data-name="Group 1658" transform="matrix(0.995, 0.105, -0.105, 0.995, 122.426, 797.436)">
      <path id="Path_1167" data-name="Path 1167" d="M0,54.46,65.286.94a4.151,4.151,0,0,1,5.261,0l65.287,53.52L67.916,115.218Z" transform="translate(0)" fill="#484557"/>
      <g id="Group_1659" data-name="Group 1659" transform="matrix(0.995, -0.105, 0.105, 0.995, 36.912, 56.043)">
        <circle id="Ellipse_85" data-name="Ellipse 85" cx="27.328" cy="27.328" r="27.328" transform="matrix(0.966, 0.259, -0.259, 0.966, 14.146, 0)" fill="#ff4269"/>
        <g id="Group_1659-2" data-name="Group 1659" transform="matrix(0.966, 0.259, -0.259, 0.966, 24.684, 16.757)">
          <path id="Path_1155" data-name="Path 1155" d="M12.571,9.964H1.053a1.034,1.034,0,0,1-.817-.32A.828.828,0,0,1,0,9.082c0-.876-.012-1.753.005-2.629A1.724,1.724,0,0,1,1.671,4.848c.491-.01.983-.005,1.475,0,.139,0,.177-.02.112-.167A3.332,3.332,0,0,1,8.619.942c.675.616,1.356,1.226,2.029,1.843.092.084.146.071.235,0a2.529,2.529,0,0,1,3.371-.011c.107.09.167.087.266,0C15.2,2.14,15.884,1.511,16.579.9A3.177,3.177,0,0,1,19.973.227a3.21,3.21,0,0,1,2.17,2.658,2.988,2.988,0,0,1-.235,1.754c-.093.2-.089.205.127.206.461,0,.92,0,1.381,0a1.725,1.725,0,0,1,1.731,1.712c.008.82.005,1.64,0,2.458a.93.93,0,0,1-.908.947c-.076,0-.151,0-.228,0ZM8.035,4.845H9.849c.058,0,.137.027.163-.055s-.04-.113-.087-.157Q8.6,3.436,7.28,2.237a1.369,1.369,0,0,0-.818-.358,1.486,1.486,0,1,0-.127,2.965C6.9,4.848,7.469,4.845,8.035,4.845Zm9.043,0h.812c.271,0,.542,0,.812,0a1.947,1.947,0,0,0,.375-.033A1.486,1.486,0,0,0,20.3,3.563a1.481,1.481,0,0,0-2.448-1.311c-.878.784-1.749,1.576-2.622,2.366-.05.045-.122.089-.094.169s.118.056.183.056C15.907,4.847,16.493,4.845,17.078,4.845Z" transform="translate(0 0)" fill="#f7fafc"/>
          <path id="Path_1156" data-name="Path 1156" d="M0,6.893V.293C0,0,0,0,.294,0h8.87c.3,0,.3,0,.3.308q0,5.742,0,11.481a1.99,1.99,0,0,1-.367,1.3,1.691,1.691,0,0,1-1.368.693c-2.5.009-5.005,0-7.508.008-.2,0-.22-.1-.22-.258Q.006,10.213,0,6.893Z" transform="translate(14.079 11.35)" fill="#f7fafc"/>
          <path id="Path_1157" data-name="Path 1157" d="M9.441,6.9v6.617c0,.272,0,.274-.274.274q-3.687,0-7.373,0A1.735,1.735,0,0,1,0,12Q0,6.137,0,.276C0,0,0,0,.268,0h8.9c.269,0,.269,0,.269.278Q9.443,3.587,9.441,6.9Z" transform="translate(1.629 11.35)" fill="#f7fafc"/>
        </g>
      </g>
      <g transform="matrix(0.99, -0.1, 0.1, 0.99, -33.12, -62.32)" filter="url(#Path_1168)">
        <path id="Path_1168-2" data-name="Path 1168" d="M118.337,88.117H4.293A4.294,4.294,0,0,1,0,83.822V0Z" transform="matrix(0.99, 0.1, -0.1, 0.99, 20.73, 119.6)" fill="#7b7597"/>
      </g>
      <g transform="matrix(0.99, -0.1, 0.1, 0.99, -33.12, -62.32)" filter="url(#Path_1169)">
        <path id="Path_1169-2" data-name="Path 1169" d="M0,88.117H114.043a4.3,4.3,0,0,0,4.3-4.295V0Z" transform="matrix(0.99, 0.1, -0.1, 0.99, 38.13, 121.43)" fill="#7b7597"/>
      </g>
      <g transform="matrix(0.99, -0.1, 0.1, 0.99, -33.12, -62.32)" filter="url(#Path_1170)">
        <path id="Path_1170-2" data-name="Path 1170" d="M0,51.653,61.922.892a3.936,3.936,0,0,1,4.991,0l61.922,50.761Z" transform="matrix(0.99, 0.1, -0.1, 0.99, 20.4, 156.23)" fill="#908aac"/>
      </g>
    </g>
    <path id="Path_1172" data-name="Path 1172" d="M1463.765,1907.449l.814,3.615a.6.6,0,0,0,.359.422l3.44,1.378a.6.6,0,0,1,.083,1.064l-3.187,1.892a.594.594,0,0,0-.29.471l-.247,3.7a.6.6,0,0,1-.987.407l-2.784-2.446a.594.594,0,0,0-.538-.13l-3.593.907a.6.6,0,0,1-.691-.812l1.465-3.4a.6.6,0,0,0-.042-.552l-1.973-3.137a.6.6,0,0,1,.559-.909l3.689.342a.594.594,0,0,0,.512-.211l2.374-2.846A.6.6,0,0,1,1463.765,1907.449Z" transform="translate(-1170.38 -1117.073)" fill="#ff4269"/>
    <path id="Path_1175" data-name="Path 1175" d="M8.264.464l.814,3.615a.6.6,0,0,0,.359.422l3.44,1.378a.6.6,0,0,1,.083,1.064L9.774,8.835a.594.594,0,0,0-.29.471L9.236,13a.6.6,0,0,1-.987.407L5.466,10.966a.594.594,0,0,0-.538-.13l-3.593.907a.6.6,0,0,1-.691-.812l1.465-3.4a.6.6,0,0,0-.042-.552L.093,3.838a.6.6,0,0,1,.559-.909l3.689.342a.594.594,0,0,0,.512-.211L7.227.214A.6.6,0,0,1,8.264.464Z" transform="translate(182.053 753.689) rotate(-30)" fill="#feb006"/>
    <path id="Path_1176" data-name="Path 1176" d="M5.525.31l.544,2.417a.4.4,0,0,0,.24.282l2.3.921a.4.4,0,0,1,.055.711L6.534,5.906a.4.4,0,0,0-.194.315L6.174,8.693a.4.4,0,0,1-.659.272L3.654,7.33a.4.4,0,0,0-.36-.087l-2.4.606A.4.4,0,0,1,.43,7.307l.979-2.275a.4.4,0,0,0-.028-.369L.062,2.565a.4.4,0,0,1,.374-.607L2.9,2.187a.4.4,0,0,0,.342-.141L4.831.143A.4.4,0,0,1,5.525.31Z" transform="matrix(0.966, 0.259, -0.259, 0.966, 265.169, 867.102)" fill="#7b7597" opacity="0.5"/>
    <circle id="Ellipse_83" data-name="Ellipse 83" cx="5.385" cy="5.385" r="5.385" transform="translate(322.44 849.846)" fill="#feb006"/>
    <circle id="Ellipse_84" data-name="Ellipse 84" cx="3.199" cy="3.199" r="3.199" transform="translate(206.571 782.074)" fill="#f7fafc" opacity="0.4"/>
    <circle id="Ellipse_86" data-name="Ellipse 86" cx="2.106" cy="2.106" r="2.106" transform="translate(111.471 818.146)" fill="#7b7597"/>
    <path id="Path_1173" data-name="Path 1173" d="M1154.925,1954.689c1.1.9,1.71,2.838,2.263,4.492a.435.435,0,0,0,.844-.075c.248-1.683.488-3.609,1.178-4.642.557-.833,2.384-1.588,4.018-2.05a.434.434,0,0,0-.042-.846,10.9,10.9,0,0,1-3.932-1.29c-1.169-.842-1.42-2.294-1.719-3.884a.436.436,0,0,0-.851-.021,11.73,11.73,0,0,1-1.556,3.762c-1.528,1.841-6.711,2.125-6.769,2.688C1148.231,1954.075,1153.578,1953.589,1154.925,1954.689Z" transform="translate(-1005.333 -1100.582)" fill="#fff"/>
    <path id="Path_1174" data-name="Path 1174" d="M7.648,10.07c1.276,1.043,1.991,3.3,2.635,5.23a.507.507,0,0,0,.982-.087c.288-1.96.568-4.2,1.371-5.4.649-.97,2.776-1.848,4.678-2.387a.506.506,0,0,0-.048-.985,12.691,12.691,0,0,1-4.578-1.5c-1.361-.98-1.654-2.671-2-4.522A.507.507,0,0,0,9.695.389a13.661,13.661,0,0,1-1.812,4.38C6.1,6.912.069,7.243,0,7.9-.146,9.356,6.079,8.79,7.648,10.07Z" transform="translate(265.799 732) rotate(90)" fill="#7b7597"/>
    <g id="Group_1660" data-name="Group 1660" transform="translate(195.603 803.162)">
      <ellipse id="Ellipse_85-2" data-name="Ellipse 85" cx="24.008" cy="24.008" rx="24.008" ry="24.008" transform="matrix(0.966, 0.259, -0.259, 0.966, 12.427, 0)" fill="#feb006"/>
    </g>
    <path id="Path_1177" data-name="Path 1177" d="M14.26.8l1.405,6.238a1.028,1.028,0,0,0,.62.728l5.936,2.378a1.027,1.027,0,0,1,.143,1.835l-5.5,3.265a1.025,1.025,0,0,0-.5.813l-.427,6.381a1.027,1.027,0,0,1-1.7.7l-4.8-4.219A1.024,1.024,0,0,0,8.5,18.7L2.3,20.263a1.026,1.026,0,0,1-1.193-1.4l2.528-5.873a1.028,1.028,0,0,0-.073-.953L.16,6.622a1.027,1.027,0,0,1,.965-1.569l6.366.591a1.025,1.025,0,0,0,.883-.364L12.47.37A1.027,1.027,0,0,1,14.26.8Z" transform="translate(217.999 817.965) rotate(19)" fill="#fff"/>
    <g id="Group_1663" data-name="Group 1663" transform="translate(111.062 762.668) rotate(-11)">
      <g id="Group_1661" data-name="Group 1661" transform="translate(0 32.952) rotate(-45)">
        <ellipse id="Ellipse_85-3" data-name="Ellipse 85" cx="19.025" cy="19.025" rx="19.025" ry="19.025" transform="matrix(0.966, 0.259, -0.259, 0.966, 9.848, 0)" fill="#ff4269"/>
      </g>
      <g id="Group_1662" data-name="Group 1662" transform="translate(23.949 23.666)">
        <path id="Path_1155-2" data-name="Path 1155" d="M8.922,7.072H.747a.734.734,0,0,1-.58-.227A.588.588,0,0,1,0,6.446C0,5.824-.005,5.2.006,4.58a1.224,1.224,0,0,1,1.18-1.139c.349-.007.7,0,1.047,0,.1,0,.126-.014.08-.118A2.365,2.365,0,0,1,6.117.669c.479.437.962.87,1.44,1.308.065.06.1.051.167,0a1.8,1.8,0,0,1,2.392-.008c.076.064.118.061.189,0,.485-.445.968-.891,1.461-1.326A2.255,2.255,0,0,1,14.176.161a2.278,2.278,0,0,1,1.54,1.886,2.121,2.121,0,0,1-.167,1.245c-.066.144-.063.145.09.146.327,0,.653,0,.98,0a1.224,1.224,0,0,1,1.229,1.215c.005.582,0,1.164,0,1.745a.66.66,0,0,1-.644.672c-.054,0-.108,0-.162,0ZM5.7,3.439H6.99c.042,0,.1.019.116-.039s-.028-.08-.061-.111q-.938-.85-1.877-1.7a.971.971,0,0,0-.58-.254,1.055,1.055,0,1,0-.09,2.1C4.9,3.441,5.3,3.439,5.7,3.439Zm6.418,0h1.153a1.389,1.389,0,0,0,.267-.024,1.055,1.055,0,0,0,.869-.886A1.051,1.051,0,0,0,12.672,1.6c-.623.557-1.241,1.119-1.861,1.68-.035.032-.087.063-.067.12s.084.04.13.04C11.29,3.44,11.705,3.439,12.121,3.439Z" transform="translate(0 0)" fill="#f7fafc"/>
        <path id="Path_1156-2" data-name="Path 1156" d="M0,4.892V.208C0,0,0,0,.209,0H6.5c.212,0,.212,0,.212.219q0,4.075,0,8.149a1.413,1.413,0,0,1-.26.923,1.2,1.2,0,0,1-.971.491c-1.776.006-3.552,0-5.329.005C.012,9.788,0,9.718,0,9.6Q0,7.249,0,4.892Z" transform="translate(9.993 8.056)" fill="#f7fafc"/>
        <path id="Path_1157-2" data-name="Path 1157" d="M6.7,4.894v4.7c0,.193,0,.194-.194.194H1.274A1.232,1.232,0,0,1,0,8.516Q0,4.356,0,.2C0,0,0,0,.19,0H6.51C6.7,0,6.7,0,6.7.2Q6.7,2.546,6.7,4.894Z" transform="translate(1.156 8.056)" fill="#f7fafc"/>
      </g>
    </g>
  </g>
</svg>
