<?xml version="1.0" encoding="utf-8"?>
<!-- Generator: Adobe Illustrator 24.3.0, SVG Export Plug-In . SVG Version: 6.00 Build 0)  -->
<svg version="1.1" id="Layer_1" xmlns="http://www.w3.org/2000/svg" xmlns:xlink="http://www.w3.org/1999/xlink" x="0px" y="0px"
	 viewBox="0 0 221.1 46" style="enable-background:new 0 0 221.1 46;" xml:space="preserve">
<style type="text/css">
	.st0{fill:#FAFAFA;}
	.st1{enable-background:new    ;}
	.st2{fill:#FF4269;}
</style>
<g transform="translate(-33.901 -31)">
	<g transform="translate(33.901 34.083)">
		<g transform="translate(0 0)">
			<path class="st0" d="M24.8,28L17,20.2l7.8-7.8l-4.6-4.6l-7.8,7.8L4.6,7.8L0,12.4l7.8,7.8L0,28l4.6,4.6l7.8-7.8l7.8,7.8L24.8,28z"
				/>
			<path class="st0" d="M9.7,2.7L5.2,7.2L9,11.1l3.4-3.5l3.4,3.5l3.8-3.8l-4.5-4.5L12.4,0L9.7,2.7"/>
			<path class="st0" d="M9.7,37.7l-4.5-4.5L9,29.3l3.4,3.5l3.4-3.5l3.8,3.8l-4.5,4.5l-2.7,2.7L9.7,37.7"/>
			<path class="st0" d="M39.1,8.1l-9.9,24.8h1.9l3.4-8.7h10l3.4,8.7h1.9L40.2,8.1H39.1z M43.9,22.6h-8.8l3.4-8.9
				c0.4-1,0.7-1.9,1-2.9c0.4,1.2,0.7,2.2,1,2.9L43.9,22.6z M65.6,13.2c0,1.4,0,2.7,0.1,4.2h-0.1c-0.6-1-1.5-1.9-2.6-2.5
				c-1.1-0.5-2.2-0.8-3.4-0.7c-2.2-0.1-4.4,0.8-5.8,2.5c-1.3,1.7-2,4.1-2,7.3c0,3,0.7,5.3,2,6.9c1.5,1.6,3.6,2.5,5.8,2.4
				c2.4,0.1,4.7-1.1,6-3.1h0.1l0.4,2.8h1.1V6.6h-1.7L65.6,13.2z M65.6,23.9c0,2.8-0.5,4.8-1.4,6c-1.1,1.3-2.8,2-4.5,1.8
				c-4,0-6-2.6-6-7.8c-0.1-2.1,0.4-4.3,1.5-6.1c1-1.4,2.7-2.2,4.5-2.1c1.7-0.2,3.5,0.5,4.6,1.9c0.9,1.2,1.4,3.3,1.4,6.1L65.6,23.9z
				 M73.8,32.8h13.4v-1.6H75.5V20.7h11v-1.6h-11V9.8h11.7V8.2H73.8L73.8,32.8z M98.8,23.4l6.3-8.9h-1.8l-5.4,7.7l-5.4-7.7h-1.9
				l6.4,8.9l-6.6,9.4H92l5.8-8.2l5.7,8.2h1.9L98.8,23.4z"/>
		</g>
	</g>
	<g class="st1">
		<path class="st2" d="M161.8,60.7c0,2-0.7,3.6-2.2,4.8c-1.5,1.2-3.5,1.8-5.9,1.8c-3,0-5.2-0.3-6.8-1v-1.7c1.7,0.7,4,1.1,6.7,1.1
			c2,0,3.6-0.5,4.7-1.4c1.2-0.9,1.8-2.1,1.8-3.6c0-0.9-0.2-1.7-0.6-2.3c-0.4-0.6-1-1.2-1.9-1.7s-2.2-1-3.9-1.6
			c-2.5-0.9-4.2-1.8-5.1-2.8c-0.9-1-1.4-2.3-1.4-4c0-1.8,0.7-3.3,2.1-4.4c1.4-1.1,3.3-1.7,5.5-1.7c2.3,0,4.4,0.4,6.4,1.3l-0.6,1.5
			c-2-0.8-3.9-1.3-5.8-1.3c-1.8,0-3.2,0.4-4.3,1.2s-1.6,2-1.6,3.4c0,0.9,0.2,1.6,0.5,2.2c0.3,0.6,0.9,1.1,1.6,1.6
			c0.7,0.5,2,1,3.8,1.7c1.9,0.7,3.3,1.3,4.3,1.9c1,0.6,1.6,1.3,2.1,2.1C161.6,58.7,161.8,59.6,161.8,60.7z"/>
		<path class="st2" d="M171.3,65.9c1,0,1.9-0.1,2.7-0.3v1.3c-0.8,0.3-1.7,0.4-2.8,0.4c-1.6,0-2.8-0.4-3.5-1.3
			c-0.8-0.9-1.1-2.2-1.1-4V50.4h-2.7v-1l2.7-0.7l0.8-4.1h0.8V49h5.3v1.4h-5.3v11.4c0,1.4,0.2,2.4,0.7,3.1S170.3,65.9,171.3,65.9z"/>
		<path class="st2" d="M188.9,67l-0.4-2.9h-0.1c-0.9,1.2-1.8,2-2.8,2.5c-1,0.5-2.1,0.7-3.4,0.7c-1.8,0-3.1-0.5-4.1-1.4
			s-1.5-2.2-1.5-3.8c0-1.8,0.7-3.1,2.2-4.1c1.5-1,3.6-1.5,6.4-1.5l3.4-0.1v-1.2c0-1.7-0.3-3-1-3.9s-1.8-1.3-3.4-1.3
			c-1.7,0-3.4,0.5-5.2,1.4l-0.6-1.4c2-0.9,3.9-1.4,5.9-1.4c2,0,3.5,0.5,4.4,1.5s1.5,2.6,1.5,4.8v12H188.9z M182.3,65.8
			c1.9,0,3.4-0.6,4.6-1.7c1.1-1.1,1.7-2.6,1.7-4.6v-1.8l-3.2,0.1c-2.5,0.1-4.3,0.5-5.4,1.2c-1.1,0.7-1.6,1.7-1.6,3.1
			c0,1.1,0.3,2,1,2.6C180,65.5,181,65.8,182.3,65.8z"/>
		<path class="st2" d="M197.6,59.1l9.2-10.1h2l-7.1,7.7l7.7,10.3h-2l-6.9-9.1l-3,2.7V67h-1.6V41.2h1.6v12.9L197.6,59.1L197.6,59.1z"
			/>
		<path class="st2" d="M212.2,43.9c0-1.1,0.3-1.6,1-1.6c0.3,0,0.6,0.1,0.8,0.4c0.2,0.3,0.3,0.7,0.3,1.2c0,0.5-0.1,0.9-0.3,1.2
			c-0.2,0.3-0.5,0.4-0.8,0.4C212.5,45.6,212.2,45,212.2,43.9z M214,67h-1.6V49h1.6V67z"/>
		<path class="st2" d="M232.7,67V55.3c0-1.8-0.4-3.1-1.1-4c-0.8-0.8-1.9-1.2-3.6-1.2c-2.2,0-3.7,0.5-4.7,1.6c-1,1.1-1.5,2.9-1.5,5.3
			v10h-1.6V49h1.4l0.3,2.5h0.1c1.2-1.9,3.3-2.8,6.3-2.8c4.1,0,6.1,2.2,6.1,6.6V67H232.7z"/>
		<path class="st2" d="M254.2,49v1.1l-3.7,0.2c1,1.2,1.5,2.6,1.5,4.1c0,1.7-0.6,3.1-1.7,4.2c-1.2,1.1-2.7,1.6-4.7,1.6
			c-0.8,0-1.4,0-1.7-0.1c-0.7,0.3-1.2,0.7-1.5,1.2s-0.5,1-0.5,1.5c0,0.6,0.2,1,0.7,1.3c0.4,0.3,1.2,0.4,2.2,0.4h3.2
			c2,0,3.5,0.4,4.5,1.2c1,0.8,1.6,2,1.6,3.5c0,1.9-0.8,3.4-2.3,4.4c-1.5,1-3.7,1.6-6.6,1.6c-2.3,0-4-0.4-5.3-1.3s-1.9-2.1-1.9-3.7
			c0-1.2,0.4-2.3,1.2-3.1c0.8-0.8,1.8-1.4,3.1-1.7c-0.5-0.2-1-0.6-1.3-1c-0.3-0.4-0.5-0.9-0.5-1.5c0-1.2,0.8-2.3,2.3-3.2
			c-1.1-0.4-1.9-1.1-2.5-2c-0.6-0.9-0.9-2-0.9-3.2c0-1.8,0.6-3.3,1.7-4.3c1.1-1.1,2.7-1.6,4.6-1.6c1.2,0,2.1,0.1,2.8,0.3H254.2z
			 M239.6,70.1c0,2.5,1.8,3.7,5.5,3.7c4.7,0,7.1-1.5,7.1-4.5c0-1.1-0.4-1.9-1.1-2.4s-1.9-0.7-3.6-0.7h-3
			C241.3,66.2,239.6,67.5,239.6,70.1z M241,54.6c0,1.4,0.4,2.5,1.3,3.2c0.8,0.8,2,1.2,3.4,1.2c1.5,0,2.7-0.4,3.5-1.1
			c0.8-0.8,1.2-1.9,1.2-3.3c0-1.5-0.4-2.7-1.2-3.5c-0.8-0.8-2-1.2-3.5-1.2c-1.4,0-2.6,0.4-3.4,1.2C241.4,52,241,53.1,241,54.6z"/>
	</g>
</g>
</svg>
