<?xml version="1.0" encoding="UTF-8"?>
<!DOCTYPE svg PUBLIC "-//W3C//DTD SVG 1.1//EN" "http://www.w3.org/Graphics/SVG/1.1/DTD/svg11.dtd">
<!-- Creator: CorelDRAW 2019 (64-Bit) -->
<svg xmlns="http://www.w3.org/2000/svg" xml:space="preserve" width="124.835mm" height="52.4706mm" version="1.1" shape-rendering="geometricPrecision" text-rendering="geometricPrecision" image-rendering="optimizeQuality" fill-rule="evenodd" clip-rule="evenodd"
viewBox="0 0 12482.44 5246.61"
 xmlns:xlink="http://www.w3.org/1999/xlink">
 <g id="Layer_x0020_1">
  <metadata id="CorelCorpID_0Corel-Layer"/>
  <g id="_2406350902624">
   <polygon fill="#7398FE" fill-opacity="0.200000" points="-0,3456.34 961.63,2494.73 0.06,1533.2 635.47,897.61 689.46,843.62 695.44,837.64 1533.11,0 1740.08,206.97 413.97,1533.2 1375.55,2494.73 601.93,3268.33 413.9,3456.31 1740.05,4782.44 1533.11,4989.42 736.9,4193.17 "/>
   <polygon fill="#7398FE" fill-opacity="0.501961" points="689.44,3456.34 1651.07,2494.73 689.49,1533.2 1373.21,849.28 1373.24,849.3 2222.54,0 2536.16,313.6 2012.13,837.64 2006.15,843.62 1952.15,897.61 1316.74,1533.2 2278.32,2494.73 1316.69,3456.34 2053.59,4193.17 2536.16,4675.76 2222.54,4989.42 1348.63,4115.47 "/>
   <polygon fill="#7398FE" points="1592.18,3456.33 2553.84,2494.73 1592.25,1533.19 2163.06,962.37 3125.37,1924.69 4087.77,962.37 4658.54,1533.19 3696.93,2494.73 4658.54,3456.33 4086.96,4027.9 3125.37,3066.28 2163.8,4027.94 "/>
   <polygon fill="#2C5CDE" points="2227.66,897.62 3125.3,0 4022.93,897.62 3541.37,1379.24 3125.3,963.18 2709.25,1379.24 "/>
   <polygon fill="#2C5CDE" points="2227.66,4091.76 3125.3,4989.42 4022.93,4091.76 3541.37,3610.23 3125.3,4026.24 2709.25,3610.23 "/>
  </g>
  <g id="_2406350904736">
   <path fill="#E5ECFF" fill-rule="nonzero" d="M5015.44 3514.46l500.84 0 181.71 -473.47 763.85 0 179.17 473.47 520.43 0 -791.88 -1961.14 -551.2 0 -802.91 1961.14zm828.11 -857.28l240.58 -627.58 235.1 627.58 -475.68 0z"/>
   <path fill="#E5ECFF" fill-rule="nonzero" d="M8338.33 3514.52l447.65 0 0 -2059.28 -453.25 98.13 0 557.4c-111.94,-64.37 -240.66,-97.99 -377.8,-97.99 -430.8,0 -769.44,333.36 -769.44,759.25 0,425.82 332.95,762.14 755.54,762.14 145.47,0 282.6,-44.88 397.31,-128.94l0 109.29zm-707.83 -742.49c0,-212.96 167.9,-375.38 388.89,-375.38 123.04,0 235.01,41.96 313.35,114.91l0 518.23c-81.08,78.5 -187.48,117.69 -313.35,117.69 -218.22,0 -388.89,-162.54 -388.89,-375.45z"/>
   <polygon fill="#E5ECFF" fill-rule="nonzero" points="9142.9,3514.46 10698.31,3514.46 10698.31,3097 9624.06,3097 9624.06,2727.22 10326.28,2727.22 10326.28,2323.7 9624.06,2323.7 9624.06,1970.77 10687.27,1970.77 10687.27,1553.32 9142.9,1553.32 "/>
   <polygon fill="#E5ECFF" fill-rule="nonzero" points="10831.71,3514.52 11338.11,3514.52 11645.99,3091.44 11956.43,3514.52 12482.44,3514.52 11906.17,2758.05 12451.68,2032.45 11945.23,2032.45 11657.16,2430.21 11366.05,2032.45 10840.02,2032.45 11394.06,2763.73 "/>
  </g>
  <path fill="#7298FE" fill-rule="nonzero" d="M5401.27 4989.4c270.77,0 402.08,-135.39 402.08,-293.56 0,-347.93 -550.99,-227.21 -550.99,-402.09 0,-59.79 50.09,-108.53 180.05,-108.53 83.93,0 174.65,24.37 262.64,74.46l67.68 -166.52c-87.99,-55.52 -209.83,-83.94 -328.97,-83.94 -269.41,0 -399.37,134.03 -399.37,295.35 0,352 550.99,230.15 550.99,407.51 0,57.99 -52.8,101.31 -182.76,101.31 -113.72,0 -232.85,-40.62 -312.72,-98.6l-74.45 164.94c83.92,64.98 235.55,109.66 385.83,109.66zm950.37 -200.36c-23.02,17.6 -54.16,27.07 -85.29,27.07 -56.86,0 -90.7,-33.84 -90.7,-96.11l0 -296.49 181.41 0 0 -162.46 -181.41 0 0 -177.34 -211.19 0 0 177.34 -112.37 0 0 162.46 112.37 0 0 299.19c0,173.3 100.18,261.29 272.12,261.29 64.98,0 128.61,-14.89 171.94,-46.03l-56.87 -148.92zm469.77 -555.07c-116.43,0 -234.21,31.14 -314.09,88l75.81 147.57c52.81,-41.97 132.68,-67.69 209.84,-67.69 113.72,0 167.88,52.8 167.88,143.51l-167.88 0c-222.02,0 -312.72,89.35 -312.72,217.96 0,125.91 101.53,220.67 272.12,220.67 106.95,0 182.76,-35.2 222.02,-101.53l0 90.7 197.65 0 0 -415.62c0,-220.67 -128.61,-323.56 -350.63,-323.56zm-16.25 607.87c-74.46,0 -119.14,-35.2 -119.14,-88 0,-48.74 31.14,-85.28 129.97,-85.28l144.86 0 0 74.45c-24.37,66.33 -85.29,98.83 -155.69,98.83zm1100.63 131.32l255.87 0 -330.32 -419.68 303.24 -308.66 -251.8 0 -308.66 292.42 0 -568.6 -211.2 0 0 1004.53 211.2 0 0 -185.47 101.53 -100.18 230.14 285.66zm450.82 -829.89c78.52,0 131.32,-51.45 131.32,-121.84 0,-64.98 -52.8,-113.72 -131.32,-113.72 -78.52,0 -131.32,51.45 -131.32,117.78 0,66.33 52.8,117.78 131.32,117.78zm-105.6 829.89l211.2 0 0 -728.35 -211.2 0 0 728.35zm850.19 -739.19c-98.83,0 -184.12,33.85 -240.98,96.12l0 -85.28 -201.72 0 0 728.35 211.2 0 0 -360.12c0,-134.02 73.1,-196.3 174.64,-196.3 93.41,0 147.57,54.16 147.57,171.94l0 384.49 211.18 0 0 -416.97c0,-222.02 -129.95,-322.21 -301.88,-322.21zm1051.89 10.84l0 93.41c-55.51,-70.4 -139.43,-104.25 -240.97,-104.25 -201.71,0 -364.17,139.45 -364.17,352 0,212.54 162.46,351.99 364.17,351.99 94.77,0 174.64,-29.79 230.14,-90.71l0 31.14c0,131.33 -64.98,199.01 -213.89,199.01 -93.41,0 -194.95,-32.49 -257.23,-82.58l-83.93 151.63c85.29,66.34 219.32,100.18 357.41,100.18 262.63,0 408.84,-124.55 408.84,-395.31l0 -606.51 -200.36 0zm-199 519.86c-111.01,0 -192.23,-71.74 -192.23,-178.69 0,-106.95 81.22,-178.7 192.23,-178.7 111.01,0 190.88,71.75 190.88,178.7 0,106.95 -79.87,178.69 -190.88,178.69z"/>
 </g>
</svg>
