<svg xmlns="http://www.w3.org/2000/svg" viewBox="0 0 229.17 169.33"><g id="Layer_2" data-name="Layer 2"><g id="Layer_1-2" data-name="Layer 1"><path d="M25.81,123.07c-6.88,0-13.75,0-20.63,0a4.81,4.81,0,0,1-4.79-3.19,4.94,4.94,0,0,1,1.15-5.51,5.24,5.24,0,0,1,4.12-1.45q18,0,36,0c2.85,0,2.83,0,2.21-2.84a71,71,0,0,1,1.67-37.22,13.43,13.43,0,0,0,.65-4.74c-.6-12.82-2.17-25.57-3-38.37-.51-7.77-1-15.55.16-23.32a17.14,17.14,0,0,1,.36-1.73c1-4.15,2.48-5.09,6.64-4.35,6.88,1.24,13.07,4.18,18.93,7.86A102.65,102.65,0,0,1,89,24.93a2.66,2.66,0,0,0,3.23.77,70.38,70.38,0,0,1,44.8,0,2.51,2.51,0,0,0,3.06-.74c7.51-7.75,15.56-14.84,25.23-19.83A49.65,49.65,0,0,1,180,.12c2.64-.44,4,.32,5,2.88a25.67,25.67,0,0,1,1.49,8.54c.35,9-.37,17.92-1.11,26.86s-1.65,18.07-2.21,27.13a32.38,32.38,0,0,0,1.5,10.72,70.6,70.6,0,0,1,.57,34.45c-.5,2.22-.52,2.22,1.84,2.22q18.3,0,36.6,0c3.1,0,5.22,1.81,5.44,4.57a5,5,0,0,1-5.09,5.56c-4.67.06-9.35,0-14,0H183.6c-.54,0-1.08,0-1.61,0-.86.07-1.16.76-1.31,1.44-.19.87.61.87,1.15,1l24.91,6.66c.62.16,1.25.31,1.86.51a5,5,0,0,1,3.58,6.42,5.1,5.1,0,0,1-6.45,3.31c-4.57-1.2-9.13-2.44-13.7-3.66-5.08-1.37-10.18-2.7-15.25-4.12a1.86,1.86,0,0,0-2.42.88,41.55,41.55,0,0,1-2.6,3.49,1.22,1.22,0,0,0,.09,1.93q7.92,7.81,15.79,15.67c1.22,1.21,2.49,2.37,3.69,3.59a5.24,5.24,0,0,1,.29,7.52c-2.09,2.14-5.09,2.1-7.45-.23q-9.28-9.19-18.48-18.46c-1.56-1.56-1.59-1.58-3.18-.18a70.5,70.5,0,0,1-38.6,17.52A71.48,71.48,0,0,1,76.62,156.3a63,63,0,0,1-9.91-7.43c-1.13-1-2-1-3.12.11-6,6.13-12.14,12.18-18.22,18.27-1.26,1.26-2.65,2.22-4.53,2A4.84,4.84,0,0,1,36.47,166a5.12,5.12,0,0,1,1.35-5.63c2.27-2.28,4.61-4.49,6.9-6.76,4.12-4.09,8.2-8.22,12.35-12.27.94-.91,1-1.57.16-2.54a18.77,18.77,0,0,1-2.21-3c-.74-1.28-1.63-1.37-3-1-9.48,2.6-19,5.13-28.48,7.67a5.13,5.13,0,0,1-6-7.66,6,6,0,0,1,3.77-2.28q12.69-3.36,25.38-6.78c.67-.18,1.88,0,1.77-1.16s-1.07-1.52-2.24-1.51c-6.83,0-13.65,0-20.48,0Zm88.65,9.27c.68.22.6.74.73,1.11a31.42,31.42,0,0,0,2.19,5c3.33,6,8.82,8.25,15.14,5.72,8.42-3.38,13-10,14.63-18.81,1-5.23-1.31-8.69-5.68-11.13a25.34,25.34,0,0,0-4.68-2.14c-13.68-4.33-27.48-4.32-41.33-1a25.5,25.5,0,0,0-10,4.61c-2.53,2-4,4.49-3.66,7.8.86,9.11,5.36,15.88,13.42,20.09,4.56,2.37,9.24,2.32,13.44-1.15a17,17,0,0,0,4.6-6.9C113.67,134.5,114.05,133.42,114.46,132.34ZM82.2,88.18a7.38,7.38,0,0,0-7.49,7.41,7.5,7.5,0,1,0,15,.14A7.39,7.39,0,0,0,82.2,88.18Zm64.73,0a7.37,7.37,0,0,0-7.42,7.47,7.47,7.47,0,0,0,7.38,7.57,7.64,7.64,0,0,0,7.62-7.56A7.39,7.39,0,0,0,146.93,88.18Z"/><path d="M114.68,111.67A26.83,26.83,0,0,1,122,112.8c1.84.68,2.23,1.36,2.05,3.3-.47,4.94-4.66,8.94-9.37,8.94a9.82,9.82,0,0,1-9.42-8.89c-.2-2,.21-2.71,2.15-3.39A27.63,27.63,0,0,1,114.68,111.67Z"/></g></g></svg>