<svg xmlns="http://www.w3.org/2000/svg" width="41.608" height="36.066" viewBox="0 0 41.608 36.066">
  <g id="Group_1885" data-name="Group 1885" transform="translate(-563.351 -970.701)">
    <g id="Group_1770" data-name="Group 1770" transform="translate(562.329 972.701)">
      <g id="Union_7" data-name="Union 7" transform="translate(2829.329 10362.701)" fill="none">
        <path d="M-2820.916-10341.565a13.626,13.626,0,0,1,.322-7.146,2.573,2.573,0,0,0,.124-.91c-.114-2.462-.417-4.909-.579-7.367a20.36,20.36,0,0,1,.031-4.477,3.4,3.4,0,0,1,.068-.333c.2-.8.477-.978,1.276-.834a10.228,10.228,0,0,1,3.635,1.509,19.772,19.772,0,0,1,3.794,3.209.507.507,0,0,0,.619.148,13.506,13.506,0,0,1,8.6,0,.486.486,0,0,0,.588-.143,18.88,18.88,0,0,1,4.844-3.807,9.558,9.558,0,0,1,2.83-.965.749.749,0,0,1,.96.554,4.9,4.9,0,0,1,.286,1.639,42.372,42.372,0,0,1-.212,5.158c-.143,1.736-.318,3.469-.426,5.209a6.245,6.245,0,0,0,.289,2.059,13.539,13.539,0,0,1,.11,6.613,13.585,13.585,0,0,1-4.37,7.335,13.523,13.523,0,0,1-7.41,3.362,13.722,13.722,0,0,1-9.08-1.941c-2.143-1.141-2.572-1.721-4.147-3.938A13.418,13.418,0,0,1-2820.916-10341.565Zm7.369-4.206a1.417,1.417,0,0,0-1.437,1.424,1.442,1.442,0,0,0,1.44,1.466,1.454,1.454,0,0,0,1.439-1.438A1.42,1.42,0,0,0-2813.547-10345.771Zm12.427,0a1.414,1.414,0,0,0-1.424,1.435,1.437,1.437,0,0,0,1.417,1.453,1.466,1.466,0,0,0,1.462-1.452A1.42,1.42,0,0,0-2801.12-10345.771Z" stroke="none"/>
        <path d="M -2807.39453125 -10330.634765625 C -2806.78369140625 -10330.634765625 -2806.164306640625 -10330.6728515625 -2805.5380859375 -10330.75 C -2802.725830078125 -10331.0947265625 -2800.2578125 -10332.2421875 -2798.127685546875 -10334.1123046875 C -2794.423583984375 -10337.537109375 -2793.8544921875 -10341.021484375 -2793.7578125 -10341.447265625 C -2793.256103515625 -10343.66015625 -2793.275634765625 -10345.8662109375 -2793.867431640625 -10348.060546875 C -2794.0498046875 -10348.736328125 -2794.201171875 -10349.3935546875 -2794.156005859375 -10350.119140625 C -2794.047607421875 -10351.859375 -2793.872802734375 -10353.591796875 -2793.72998046875 -10355.328125 C -2793.588623046875 -10357.044921875 -2793.44970703125 -10358.76171875 -2793.51806640625 -10360.486328125 C -2793.540283203125 -10361.041015625 -2793.59423828125 -10361.599609375 -2793.8037109375 -10362.125 C -2793.999755859375 -10362.6162109375 -2794.259765625 -10362.763671875 -2794.763671875 -10362.6787109375 C -2795.759521484375 -10362.513671875 -2796.698486328125 -10362.17578125 -2797.59326171875 -10361.7138671875 C -2799.450927734375 -10360.755859375 -2800.996337890625 -10359.3955078125 -2802.43701171875 -10357.9072265625 C -2802.625 -10357.7138671875 -2802.77490234375 -10357.68359375 -2803.025390625 -10357.7646484375 C -2805.890625 -10358.7041015625 -2808.76220703125 -10358.703125 -2811.62744140625 -10357.7666015625 C -2811.89208984375 -10357.6806640625 -2812.0537109375 -10357.7119140625 -2812.24609375 -10357.9150390625 C -2813.391845703125 -10359.123046875 -2814.62353515625 -10360.234375 -2816.0400390625 -10361.1240234375 C -2817.16650390625 -10361.8310546875 -2818.353515625 -10362.396484375 -2819.67529296875 -10362.6328125 C -2820.474365234375 -10362.775390625 -2820.74853515625 -10362.59375 -2820.950927734375 -10361.798828125 C -2820.97900390625 -10361.689453125 -2821.001953125 -10361.578125 -2821.01904296875 -10361.4658203125 C -2821.249755859375 -10359.9755859375 -2821.148193359375 -10358.4814453125 -2821.0498046875 -10356.9892578125 C -2820.88720703125 -10354.53125 -2820.58447265625 -10352.083984375 -2820.470458984375 -10349.6220703125 C -2820.4560546875 -10349.3095703125 -2820.499267578125 -10349.0126953125 -2820.594482421875 -10348.7119140625 C -2821.33837890625 -10346.359375 -2821.445068359375 -10343.9755859375 -2820.916015625 -10341.5654296875 C -2820.79638671875 -10341.0205078125 -2820.33935546875 -10338.8486328125 -2818.764892578125 -10336.6298828125 C -2817.1904296875 -10334.412109375 -2816.7607421875 -10333.83203125 -2814.6181640625 -10332.69140625 C -2812.360107421875 -10331.3076171875 -2809.945556640625 -10330.634765625 -2807.39453125 -10330.634765625 M -2813.546875 -10345.771484375 C -2812.728515625 -10345.771484375 -2812.1005859375 -10345.1396484375 -2812.1044921875 -10344.3203125 C -2812.10791015625 -10343.5341796875 -2812.75830078125 -10342.8837890625 -2813.54345703125 -10342.8818359375 C -2813.545166015625 -10342.8818359375 -2813.547119140625 -10342.8818359375 -2813.548828125 -10342.8818359375 C -2814.34814453125 -10342.8818359375 -2814.987060546875 -10343.5341796875 -2814.98388671875 -10344.34765625 C -2814.98095703125 -10345.1474609375 -2814.3505859375 -10345.771484375 -2813.546875 -10345.771484375 M -2801.112060546875 -10345.7705078125 C -2800.29443359375 -10345.7705078125 -2799.660400390625 -10345.1416015625 -2799.6640625 -10344.3349609375 C -2799.66748046875 -10343.5361328125 -2800.3251953125 -10342.8828125 -2801.12646484375 -10342.8828125 C -2801.127197265625 -10342.8828125 -2801.127685546875 -10342.8828125 -2801.128173828125 -10342.8828125 C -2801.908203125 -10342.8828125 -2802.54736328125 -10343.5390625 -2802.543701171875 -10344.3359375 C -2802.5400390625 -10345.1435546875 -2801.921142578125 -10345.767578125 -2801.11962890625 -10345.7705078125 C -2801.1171875 -10345.7705078125 -2801.114501953125 -10345.7705078125 -2801.112060546875 -10345.7705078125 M -2807.39453125 -10328.634765625 C -2810.314453125 -10328.634765625 -2813.078369140625 -10329.4150390625 -2815.61083984375 -10330.9541015625 C -2818.038330078125 -10332.2529296875 -2818.69921875 -10333.0830078125 -2820.395751953125 -10335.4716796875 C -2821.57958984375 -10337.140625 -2822.40966796875 -10339.037109375 -2822.863525390625 -10341.109375 L -2822.869384765625 -10341.13671875 C -2823.47265625 -10343.8837890625 -2823.3486328125 -10346.6357421875 -2822.50146484375 -10349.314453125 C -2822.468505859375 -10349.4189453125 -2822.466064453125 -10349.4794921875 -2822.46826171875 -10349.5302734375 C -2822.53173828125 -10350.8984375 -2822.659423828125 -10352.3076171875 -2822.782958984375 -10353.6708984375 C -2822.877197265625 -10354.7099609375 -2822.974609375 -10355.78515625 -2823.04541015625 -10356.857421875 L -2823.048095703125 -10356.8984375 C -2823.151123046875 -10358.4599609375 -2823.2578125 -10360.0751953125 -2822.995849609375 -10361.76953125 C -2822.96923828125 -10361.9443359375 -2822.932861328125 -10362.1220703125 -2822.88818359375 -10362.2958984375 C -2822.781494140625 -10362.71484375 -2822.582763671875 -10363.3369140625 -2822.100830078125 -10363.8486328125 C -2821.744140625 -10364.2265625 -2821.107421875 -10364.677734375 -2820.099609375 -10364.677734375 C -2819.86181640625 -10364.677734375 -2819.607177734375 -10364.65234375 -2819.321533203125 -10364.6015625 C -2817.8876953125 -10364.3447265625 -2816.506591796875 -10363.7783203125 -2814.976806640625 -10362.818359375 C -2813.76611328125 -10362.0576171875 -2812.6171875 -10361.1259765625 -2811.40625 -10359.9189453125 C -2810.05029296875 -10360.2841796875 -2808.68212890625 -10360.46875 -2807.326416015625 -10360.46875 C -2805.972412109375 -10360.46875 -2804.60791015625 -10360.28515625 -2803.25830078125 -10359.9208984375 C -2802.044189453125 -10361.119140625 -2800.4716796875 -10362.4794921875 -2798.510009765625 -10363.4912109375 C -2797.38623046875 -10364.0712890625 -2796.235595703125 -10364.4619140625 -2795.090576171875 -10364.6513671875 C -2794.890869140625 -10364.6845703125 -2794.704345703125 -10364.701171875 -2794.52001953125 -10364.701171875 C -2793.966064453125 -10364.701171875 -2792.606201171875 -10364.5224609375 -2791.94580078125 -10362.865234375 C -2791.61865234375 -10362.044921875 -2791.546875 -10361.2421875 -2791.519775390625 -10360.56640625 C -2791.445556640625 -10358.69921875 -2791.593505859375 -10356.90234375 -2791.73681640625 -10355.1640625 C -2791.78369140625 -10354.59375 -2791.83447265625 -10354.017578125 -2791.8837890625 -10353.4599609375 C -2791.984375 -10352.3212890625 -2792.08837890625 -10351.1435546875 -2792.159912109375 -10349.9951171875 C -2792.1845703125 -10349.5966796875 -2792.0966796875 -10349.17578125 -2791.9365234375 -10348.58203125 C -2791.270751953125 -10346.1123046875 -2791.227294921875 -10343.5634765625 -2791.807373046875 -10341.0048828125 C -2791.81005859375 -10340.9931640625 -2791.8134765625 -10340.9755859375 -2791.81787109375 -10340.955078125 C -2792.437744140625 -10337.974609375 -2794.196533203125 -10335.0234375 -2796.77001953125 -10332.6435546875 L -2796.80810546875 -10332.609375 C -2799.271484375 -10330.4462890625 -2802.126953125 -10329.1533203125 -2805.294677734375 -10328.7646484375 C -2806 -10328.6787109375 -2806.70654296875 -10328.634765625 -2807.39453125 -10328.634765625 Z" stroke="none" fill="#2c5cde"/>
      </g>
    </g>
    <path id="Path_3319" data-name="Path 3319" d="M946.637-279.879a5.308,5.308,0,0,1,1.436.223c.363.134.44.268.4.65a1.937,1.937,0,0,1-1.848,1.765A1.937,1.937,0,0,1,944.772-279c-.04-.394.042-.534.424-.668A5.4,5.4,0,0,1,946.637-279.879Z" transform="translate(-362.291 1274.985)" fill="#2c5cde"/>
    <path id="Path_3320" data-name="Path 3320" d="M2849.692,10390.256a2.6,2.6,0,0,0,1.571-2.724,3.172,3.172,0,0,0-.134-.85" transform="translate(-2267 -9390)" fill="none" stroke="#2c5cde" stroke-linecap="round" stroke-linejoin="round" stroke-width="2"/>
    <path id="Path_3321" data-name="Path 3321" d="M2851.265,10390.256a2.6,2.6,0,0,1-1.571-2.724,3.172,3.172,0,0,1,.134-.85" transform="translate(-2265.427 -9390)" fill="none" stroke="#2c5cde" stroke-linecap="round" stroke-linejoin="round" stroke-width="2"/>
    <path id="Path_3322" data-name="Path 3322" d="M12.474.039,1.9.533" transform="translate(562.5 995.252)" fill="#2c5cde" stroke="#2c5cde" stroke-linecap="round" stroke-width="2"/>
    <path id="Path_3323" data-name="Path 3323" d="M1.9.039,12.474.533" transform="translate(591.44 995.252)" fill="#2c5cde" stroke="#2c5cde" stroke-linecap="round" stroke-width="2"/>
    <line id="Line_220" data-name="Line 220" x1="7" y2="3" transform="translate(568.5 998.5)" fill="none" stroke="#2c5cde" stroke-linecap="round" stroke-width="2"/>
    <line id="Line_221" data-name="Line 221" x2="7" y2="3" transform="translate(592.81 998.5)" fill="none" stroke="#2c5cde" stroke-linecap="round" stroke-width="2"/>
  </g>
</svg>
