
<svg version="1.1"  x="0px" y="0px" viewBox="0 0 1000 1000" enable-background="new 0 0 1000 1000" >
<g><path d="M162.5,971.3l-13.6-136.6c0-12.5,16-1.4,36.2-1.4l0,0c20.1,0,36.3-11.1,36.3,1.4l0,0L210,967.9C210,997,162.5,985.2,162.5,971.3z M104.3,526.5c-99.5-45-91.5-115.8-91.5-115.8c-12.5,25,14.1,243,117.9,243C177.2,653.8,216.2,576.8,104.3,526.5z M104.3,372.5C4.8,327.6,12.9,256.8,12.9,256.8c-12.5,24.9,14.1,243,117.9,243C177.2,499.8,216.2,422.9,104.3,372.5z M104.3,223C4.8,178.4,12.9,107.4,12.9,107.4c-12.5,25,14.1,243,117.9,243C177.2,350.3,216.2,273.5,104.3,223z M242.3,653.8c103.7,0,130.3-218,117.9-243c0,0,8.1,70.8-91.6,115.8C156.9,576.8,195.8,653.8,242.3,653.8z M104.3,684.4c-99.5-45-91.5-115.8-91.5-115.8c-12.5,25,14.1,243,117.9,243C177.2,811.6,216.2,734.6,104.3,684.4z M242.3,811.6c103.7,0,130.3-218,117.9-243c0,0,8.1,70.8-91.6,115.8C156.9,734.6,195.8,811.6,242.3,811.6z M242.3,499.8c103.7,0,130.3-218.1,117.9-243c0,0,8.1,70.8-91.6,115.7C156.9,422.9,195.8,499.8,242.3,499.8z M242.3,350.3c103.7,0,130.3-218,117.9-243c0,0,8.1,70.9-91.6,115.6C156.9,273.5,195.8,350.3,242.3,350.3z M193.8,234.7c110.1,0-6.1-234.6-6.1-234.6C173.7,22.1,83.7,234.7,193.8,234.7z M491.3,989.6l66.4-116.2l0,0c5.3-11.2-14.1-8.1-32.2-16.5l0,0c-18.4-8.5-28.3-25.4-33.5-14l-45.3,129.5C440.9,985.2,478.9,1015.9,491.3,989.6z M581.3,544.7c-71.2-82.7-34.1-143.5-34.1-143.5c-21.9,17.3-89.5,226.4,4.5,270.1C593.8,690.9,661.6,637.5,581.3,544.7z M646.2,404.9c-71.2-82.5-34.1-143.3-34.1-143.3c-21.9,17.3-89.6,226.4,4.4,270.2C658.7,551.2,726.5,498,646.2,404.9z M709.2,269.5C637.8,187.1,675.1,126,675.1,126c-22,17.3-89.6,226.3,4.5,270.1C721.7,415.6,789.4,362.5,709.2,269.5z M653,718.4c94.1,43.5,210-142.8,209.2-170.8c0,0-22.5,67.7-131.8,66.4C607.8,612.6,610.8,698.7,653,718.4z M514.9,687.8c-71.3-82.7-34.3-143.4-34.3-143.4c-21.9,17.3-89.5,226.4,4.5,269.9C527.5,833.9,595.1,780.6,514.9,687.8z M586.5,861.4c94,43.7,210-142.8,209.3-170.8c0,0-22.5,67.7-131.8,66.4C541.4,755.7,544.3,841.9,586.5,861.4z M717.8,578.7c94.1,43.7,210-143,209.2-170.8c0,0-22.5,67.6-131.7,66.4C672.7,473,675.6,559.2,717.8,578.7z M780.8,443.1c94.1,43.8,210-142.7,209.2-170.7c0,0-22.6,67.9-131.7,66.4C735.7,337.5,738.7,423.6,780.8,443.1z M785.4,317.7c99.8,46.3,93.3-215.3,93.3-215.3C856.8,116.6,685.7,271.3,785.4,317.7z"/></g>
</svg>